<mxfile host="app.diagrams.net" modified="2021-12-06T05:54:12.449Z" agent="5.0 (Windows)" etag="VEOhGwKqw6qc5uxZsHbb" version="15.8.6" type="github">
  <diagram id="eqwzJIM50dDCEKzzZbfN" name="第 1 页">
    <mxGraphModel dx="2500" dy="929" grid="1" gridSize="10" guides="1" tooltips="1" connect="1" arrows="1" fold="1" page="1" pageScale="1" pageWidth="827" pageHeight="1169" math="0" shadow="0">
      <root>
        <mxCell id="0" />
        <mxCell id="1" parent="0" />
        <mxCell id="WDAkb9en_wS_irwKjnbd-1" value="SimulatedBuildingHeightInput" style="swimlane;fontStyle=1;align=center;verticalAlign=top;childLayout=stackLayout;horizontal=1;startSize=26;horizontalStack=0;resizeParent=1;resizeParentMax=0;resizeLast=0;collapsible=1;marginBottom=0;" vertex="1" collapsed="1" parent="1">
          <mxGeometry x="-50" y="150" width="200" height="26" as="geometry">
            <mxRectangle x="270" y="200" width="210" height="86" as="alternateBounds" />
          </mxGeometry>
        </mxCell>
        <mxCell id="WDAkb9en_wS_irwKjnbd-2" value="+ field: type" style="text;strokeColor=none;fillColor=none;align=left;verticalAlign=top;spacingLeft=4;spacingRight=4;overflow=hidden;rotatable=0;points=[[0,0.5],[1,0.5]];portConstraint=eastwest;" vertex="1" parent="WDAkb9en_wS_irwKjnbd-1">
          <mxGeometry y="26" width="200" height="26" as="geometry" />
        </mxCell>
        <mxCell id="WDAkb9en_wS_irwKjnbd-3" value="" style="line;strokeWidth=1;fillColor=none;align=left;verticalAlign=middle;spacingTop=-1;spacingLeft=3;spacingRight=3;rotatable=0;labelPosition=right;points=[];portConstraint=eastwest;" vertex="1" parent="WDAkb9en_wS_irwKjnbd-1">
          <mxGeometry y="52" width="200" height="8" as="geometry" />
        </mxCell>
        <mxCell id="WDAkb9en_wS_irwKjnbd-4" value="+ method(type): type" style="text;strokeColor=none;fillColor=none;align=left;verticalAlign=top;spacingLeft=4;spacingRight=4;overflow=hidden;rotatable=0;points=[[0,0.5],[1,0.5]];portConstraint=eastwest;" vertex="1" parent="WDAkb9en_wS_irwKjnbd-1">
          <mxGeometry y="60" width="200" height="26" as="geometry" />
        </mxCell>
        <mxCell id="WDAkb9en_wS_irwKjnbd-5" value="IEditModeBehavior" style="swimlane;fontStyle=1;align=center;verticalAlign=top;childLayout=stackLayout;horizontal=1;startSize=26;horizontalStack=0;resizeParent=1;resizeParentMax=0;resizeLast=0;collapsible=1;marginBottom=0;" vertex="1" collapsed="1" parent="1">
          <mxGeometry x="330" y="950" width="270" height="26" as="geometry">
            <mxRectangle x="270" y="200" width="210" height="86" as="alternateBounds" />
          </mxGeometry>
        </mxCell>
        <mxCell id="WDAkb9en_wS_irwKjnbd-6" value="+ field: type" style="text;strokeColor=none;fillColor=none;align=left;verticalAlign=top;spacingLeft=4;spacingRight=4;overflow=hidden;rotatable=0;points=[[0,0.5],[1,0.5]];portConstraint=eastwest;" vertex="1" parent="WDAkb9en_wS_irwKjnbd-5">
          <mxGeometry y="26" width="270" height="26" as="geometry" />
        </mxCell>
        <mxCell id="WDAkb9en_wS_irwKjnbd-7" value="" style="line;strokeWidth=1;fillColor=none;align=left;verticalAlign=middle;spacingTop=-1;spacingLeft=3;spacingRight=3;rotatable=0;labelPosition=right;points=[];portConstraint=eastwest;" vertex="1" parent="WDAkb9en_wS_irwKjnbd-5">
          <mxGeometry y="52" width="270" height="8" as="geometry" />
        </mxCell>
        <mxCell id="WDAkb9en_wS_irwKjnbd-8" value="+ method(type): type" style="text;strokeColor=none;fillColor=none;align=left;verticalAlign=top;spacingLeft=4;spacingRight=4;overflow=hidden;rotatable=0;points=[[0,0.5],[1,0.5]];portConstraint=eastwest;" vertex="1" parent="WDAkb9en_wS_irwKjnbd-5">
          <mxGeometry y="60" width="270" height="26" as="geometry" />
        </mxCell>
        <mxCell id="WDAkb9en_wS_irwKjnbd-9" value="BmSimulatedBuilding" style="swimlane;fontStyle=1;align=center;verticalAlign=top;childLayout=stackLayout;horizontal=1;startSize=26;horizontalStack=0;resizeParent=1;resizeParentMax=0;resizeLast=0;collapsible=1;marginBottom=0;" vertex="1" collapsed="1" parent="1">
          <mxGeometry x="-280" y="150" width="200" height="26" as="geometry">
            <mxRectangle x="270" y="200" width="210" height="86" as="alternateBounds" />
          </mxGeometry>
        </mxCell>
        <mxCell id="WDAkb9en_wS_irwKjnbd-10" value="+ field: type" style="text;strokeColor=none;fillColor=none;align=left;verticalAlign=top;spacingLeft=4;spacingRight=4;overflow=hidden;rotatable=0;points=[[0,0.5],[1,0.5]];portConstraint=eastwest;" vertex="1" parent="WDAkb9en_wS_irwKjnbd-9">
          <mxGeometry y="26" width="200" height="26" as="geometry" />
        </mxCell>
        <mxCell id="WDAkb9en_wS_irwKjnbd-11" value="" style="line;strokeWidth=1;fillColor=none;align=left;verticalAlign=middle;spacingTop=-1;spacingLeft=3;spacingRight=3;rotatable=0;labelPosition=right;points=[];portConstraint=eastwest;" vertex="1" parent="WDAkb9en_wS_irwKjnbd-9">
          <mxGeometry y="52" width="200" height="8" as="geometry" />
        </mxCell>
        <mxCell id="WDAkb9en_wS_irwKjnbd-12" value="+ method(type): type" style="text;strokeColor=none;fillColor=none;align=left;verticalAlign=top;spacingLeft=4;spacingRight=4;overflow=hidden;rotatable=0;points=[[0,0.5],[1,0.5]];portConstraint=eastwest;" vertex="1" parent="WDAkb9en_wS_irwKjnbd-9">
          <mxGeometry y="60" width="200" height="26" as="geometry" />
        </mxCell>
        <mxCell id="WDAkb9en_wS_irwKjnbd-13" value="IBmSimulatedBuilding" style="swimlane;fontStyle=1;align=center;verticalAlign=top;childLayout=stackLayout;horizontal=1;startSize=26;horizontalStack=0;resizeParent=1;resizeParentMax=0;resizeLast=0;collapsible=1;marginBottom=0;" vertex="1" collapsed="1" parent="1">
          <mxGeometry x="-280" y="90" width="200" height="26" as="geometry">
            <mxRectangle x="270" y="200" width="210" height="86" as="alternateBounds" />
          </mxGeometry>
        </mxCell>
        <mxCell id="WDAkb9en_wS_irwKjnbd-14" value="+ field: type" style="text;strokeColor=none;fillColor=none;align=left;verticalAlign=top;spacingLeft=4;spacingRight=4;overflow=hidden;rotatable=0;points=[[0,0.5],[1,0.5]];portConstraint=eastwest;" vertex="1" parent="WDAkb9en_wS_irwKjnbd-13">
          <mxGeometry y="26" width="200" height="26" as="geometry" />
        </mxCell>
        <mxCell id="WDAkb9en_wS_irwKjnbd-15" value="" style="line;strokeWidth=1;fillColor=none;align=left;verticalAlign=middle;spacingTop=-1;spacingLeft=3;spacingRight=3;rotatable=0;labelPosition=right;points=[];portConstraint=eastwest;" vertex="1" parent="WDAkb9en_wS_irwKjnbd-13">
          <mxGeometry y="52" width="200" height="8" as="geometry" />
        </mxCell>
        <mxCell id="WDAkb9en_wS_irwKjnbd-16" value="+ method(type): type" style="text;strokeColor=none;fillColor=none;align=left;verticalAlign=top;spacingLeft=4;spacingRight=4;overflow=hidden;rotatable=0;points=[[0,0.5],[1,0.5]];portConstraint=eastwest;" vertex="1" parent="WDAkb9en_wS_irwKjnbd-13">
          <mxGeometry y="60" width="200" height="26" as="geometry" />
        </mxCell>
        <mxCell id="WDAkb9en_wS_irwKjnbd-18" value="NdbObjectSchematic" style="swimlane;fontStyle=1;align=center;verticalAlign=top;childLayout=stackLayout;horizontal=1;startSize=26;horizontalStack=0;resizeParent=1;resizeParentMax=0;resizeLast=0;collapsible=1;marginBottom=0;" vertex="1" collapsed="1" parent="1">
          <mxGeometry x="-50" y="90" width="200" height="26" as="geometry">
            <mxRectangle x="270" y="200" width="210" height="86" as="alternateBounds" />
          </mxGeometry>
        </mxCell>
        <mxCell id="WDAkb9en_wS_irwKjnbd-19" value="+ field: type" style="text;strokeColor=none;fillColor=none;align=left;verticalAlign=top;spacingLeft=4;spacingRight=4;overflow=hidden;rotatable=0;points=[[0,0.5],[1,0.5]];portConstraint=eastwest;" vertex="1" parent="WDAkb9en_wS_irwKjnbd-18">
          <mxGeometry y="26" width="200" height="26" as="geometry" />
        </mxCell>
        <mxCell id="WDAkb9en_wS_irwKjnbd-20" value="" style="line;strokeWidth=1;fillColor=none;align=left;verticalAlign=middle;spacingTop=-1;spacingLeft=3;spacingRight=3;rotatable=0;labelPosition=right;points=[];portConstraint=eastwest;" vertex="1" parent="WDAkb9en_wS_irwKjnbd-18">
          <mxGeometry y="52" width="200" height="8" as="geometry" />
        </mxCell>
        <mxCell id="WDAkb9en_wS_irwKjnbd-21" value="+ method(type): type" style="text;strokeColor=none;fillColor=none;align=left;verticalAlign=top;spacingLeft=4;spacingRight=4;overflow=hidden;rotatable=0;points=[[0,0.5],[1,0.5]];portConstraint=eastwest;" vertex="1" parent="WDAkb9en_wS_irwKjnbd-18">
          <mxGeometry y="60" width="200" height="26" as="geometry" />
        </mxCell>
        <mxCell id="WDAkb9en_wS_irwKjnbd-22" value="IBmElementCutComponent" style="swimlane;fontStyle=1;align=center;verticalAlign=top;childLayout=stackLayout;horizontal=1;startSize=26;horizontalStack=0;resizeParent=1;resizeParentMax=0;resizeLast=0;collapsible=1;marginBottom=0;" vertex="1" collapsed="1" parent="1">
          <mxGeometry x="-510" y="90" width="200" height="26" as="geometry">
            <mxRectangle x="270" y="200" width="210" height="86" as="alternateBounds" />
          </mxGeometry>
        </mxCell>
        <mxCell id="WDAkb9en_wS_irwKjnbd-23" value="+ field: type" style="text;strokeColor=none;fillColor=none;align=left;verticalAlign=top;spacingLeft=4;spacingRight=4;overflow=hidden;rotatable=0;points=[[0,0.5],[1,0.5]];portConstraint=eastwest;" vertex="1" parent="WDAkb9en_wS_irwKjnbd-22">
          <mxGeometry y="26" width="200" height="26" as="geometry" />
        </mxCell>
        <mxCell id="WDAkb9en_wS_irwKjnbd-24" value="" style="line;strokeWidth=1;fillColor=none;align=left;verticalAlign=middle;spacingTop=-1;spacingLeft=3;spacingRight=3;rotatable=0;labelPosition=right;points=[];portConstraint=eastwest;" vertex="1" parent="WDAkb9en_wS_irwKjnbd-22">
          <mxGeometry y="52" width="200" height="8" as="geometry" />
        </mxCell>
        <mxCell id="WDAkb9en_wS_irwKjnbd-25" value="+ method(type): type" style="text;strokeColor=none;fillColor=none;align=left;verticalAlign=top;spacingLeft=4;spacingRight=4;overflow=hidden;rotatable=0;points=[[0,0.5],[1,0.5]];portConstraint=eastwest;" vertex="1" parent="WDAkb9en_wS_irwKjnbd-22">
          <mxGeometry y="60" width="200" height="26" as="geometry" />
        </mxCell>
        <mxCell id="WDAkb9en_wS_irwKjnbd-26" value="IBmElementBreakComponent" style="swimlane;fontStyle=1;align=center;verticalAlign=top;childLayout=stackLayout;horizontal=1;startSize=26;horizontalStack=0;resizeParent=1;resizeParentMax=0;resizeLast=0;collapsible=1;marginBottom=0;" vertex="1" collapsed="1" parent="1">
          <mxGeometry x="-750" y="90" width="200" height="26" as="geometry">
            <mxRectangle x="270" y="200" width="210" height="86" as="alternateBounds" />
          </mxGeometry>
        </mxCell>
        <mxCell id="WDAkb9en_wS_irwKjnbd-27" value="+ field: type" style="text;strokeColor=none;fillColor=none;align=left;verticalAlign=top;spacingLeft=4;spacingRight=4;overflow=hidden;rotatable=0;points=[[0,0.5],[1,0.5]];portConstraint=eastwest;" vertex="1" parent="WDAkb9en_wS_irwKjnbd-26">
          <mxGeometry y="26" width="200" height="26" as="geometry" />
        </mxCell>
        <mxCell id="WDAkb9en_wS_irwKjnbd-28" value="" style="line;strokeWidth=1;fillColor=none;align=left;verticalAlign=middle;spacingTop=-1;spacingLeft=3;spacingRight=3;rotatable=0;labelPosition=right;points=[];portConstraint=eastwest;" vertex="1" parent="WDAkb9en_wS_irwKjnbd-26">
          <mxGeometry y="52" width="200" height="8" as="geometry" />
        </mxCell>
        <mxCell id="WDAkb9en_wS_irwKjnbd-29" value="+ method(type): type" style="text;strokeColor=none;fillColor=none;align=left;verticalAlign=top;spacingLeft=4;spacingRight=4;overflow=hidden;rotatable=0;points=[[0,0.5],[1,0.5]];portConstraint=eastwest;" vertex="1" parent="WDAkb9en_wS_irwKjnbd-26">
          <mxGeometry y="60" width="200" height="26" as="geometry" />
        </mxCell>
        <mxCell id="WDAkb9en_wS_irwKjnbd-30" value="IExternalObject" style="swimlane;fontStyle=1;align=center;verticalAlign=top;childLayout=stackLayout;horizontal=1;startSize=26;horizontalStack=0;resizeParent=1;resizeParentMax=0;resizeLast=0;collapsible=1;marginBottom=0;" vertex="1" collapsed="1" parent="1">
          <mxGeometry x="-280" y="40" width="200" height="26" as="geometry">
            <mxRectangle x="270" y="200" width="210" height="86" as="alternateBounds" />
          </mxGeometry>
        </mxCell>
        <mxCell id="WDAkb9en_wS_irwKjnbd-31" value="+ field: type" style="text;strokeColor=none;fillColor=none;align=left;verticalAlign=top;spacingLeft=4;spacingRight=4;overflow=hidden;rotatable=0;points=[[0,0.5],[1,0.5]];portConstraint=eastwest;" vertex="1" parent="WDAkb9en_wS_irwKjnbd-30">
          <mxGeometry y="26" width="200" height="26" as="geometry" />
        </mxCell>
        <mxCell id="WDAkb9en_wS_irwKjnbd-32" value="" style="line;strokeWidth=1;fillColor=none;align=left;verticalAlign=middle;spacingTop=-1;spacingLeft=3;spacingRight=3;rotatable=0;labelPosition=right;points=[];portConstraint=eastwest;" vertex="1" parent="WDAkb9en_wS_irwKjnbd-30">
          <mxGeometry y="52" width="200" height="8" as="geometry" />
        </mxCell>
        <mxCell id="WDAkb9en_wS_irwKjnbd-33" value="+ method(type): type" style="text;strokeColor=none;fillColor=none;align=left;verticalAlign=top;spacingLeft=4;spacingRight=4;overflow=hidden;rotatable=0;points=[[0,0.5],[1,0.5]];portConstraint=eastwest;" vertex="1" parent="WDAkb9en_wS_irwKjnbd-30">
          <mxGeometry y="60" width="200" height="26" as="geometry" />
        </mxCell>
        <mxCell id="WDAkb9en_wS_irwKjnbd-34" value="IElementParametersCustomizer" style="swimlane;fontStyle=1;align=center;verticalAlign=top;childLayout=stackLayout;horizontal=1;startSize=26;horizontalStack=0;resizeParent=1;resizeParentMax=0;resizeLast=0;collapsible=1;marginBottom=0;" vertex="1" collapsed="1" parent="1">
          <mxGeometry x="-750" y="200" width="220" height="26" as="geometry">
            <mxRectangle x="270" y="200" width="210" height="86" as="alternateBounds" />
          </mxGeometry>
        </mxCell>
        <mxCell id="WDAkb9en_wS_irwKjnbd-35" value="+ field: type" style="text;strokeColor=none;fillColor=none;align=left;verticalAlign=top;spacingLeft=4;spacingRight=4;overflow=hidden;rotatable=0;points=[[0,0.5],[1,0.5]];portConstraint=eastwest;" vertex="1" parent="WDAkb9en_wS_irwKjnbd-34">
          <mxGeometry y="26" width="220" height="26" as="geometry" />
        </mxCell>
        <mxCell id="WDAkb9en_wS_irwKjnbd-36" value="" style="line;strokeWidth=1;fillColor=none;align=left;verticalAlign=middle;spacingTop=-1;spacingLeft=3;spacingRight=3;rotatable=0;labelPosition=right;points=[];portConstraint=eastwest;" vertex="1" parent="WDAkb9en_wS_irwKjnbd-34">
          <mxGeometry y="52" width="220" height="8" as="geometry" />
        </mxCell>
        <mxCell id="WDAkb9en_wS_irwKjnbd-37" value="+ method(type): type" style="text;strokeColor=none;fillColor=none;align=left;verticalAlign=top;spacingLeft=4;spacingRight=4;overflow=hidden;rotatable=0;points=[[0,0.5],[1,0.5]];portConstraint=eastwest;" vertex="1" parent="WDAkb9en_wS_irwKjnbd-34">
          <mxGeometry y="60" width="220" height="26" as="geometry" />
        </mxCell>
        <mxCell id="WDAkb9en_wS_irwKjnbd-38" value="SimulatedBuildingCustomizableParameterBehavior" style="swimlane;fontStyle=1;align=center;verticalAlign=top;childLayout=stackLayout;horizontal=1;startSize=26;horizontalStack=0;resizeParent=1;resizeParentMax=0;resizeLast=0;collapsible=1;marginBottom=0;" vertex="1" collapsed="1" parent="1">
          <mxGeometry x="-750" y="254" width="340" height="26" as="geometry">
            <mxRectangle x="270" y="200" width="210" height="86" as="alternateBounds" />
          </mxGeometry>
        </mxCell>
        <mxCell id="WDAkb9en_wS_irwKjnbd-39" value="+ field: type" style="text;strokeColor=none;fillColor=none;align=left;verticalAlign=top;spacingLeft=4;spacingRight=4;overflow=hidden;rotatable=0;points=[[0,0.5],[1,0.5]];portConstraint=eastwest;" vertex="1" parent="WDAkb9en_wS_irwKjnbd-38">
          <mxGeometry y="26" width="340" height="26" as="geometry" />
        </mxCell>
        <mxCell id="WDAkb9en_wS_irwKjnbd-40" value="" style="line;strokeWidth=1;fillColor=none;align=left;verticalAlign=middle;spacingTop=-1;spacingLeft=3;spacingRight=3;rotatable=0;labelPosition=right;points=[];portConstraint=eastwest;" vertex="1" parent="WDAkb9en_wS_irwKjnbd-38">
          <mxGeometry y="52" width="340" height="8" as="geometry" />
        </mxCell>
        <mxCell id="WDAkb9en_wS_irwKjnbd-41" value="+ method(type): type" style="text;strokeColor=none;fillColor=none;align=left;verticalAlign=top;spacingLeft=4;spacingRight=4;overflow=hidden;rotatable=0;points=[[0,0.5],[1,0.5]];portConstraint=eastwest;" vertex="1" parent="WDAkb9en_wS_irwKjnbd-38">
          <mxGeometry y="60" width="340" height="26" as="geometry" />
        </mxCell>
        <mxCell id="WDAkb9en_wS_irwKjnbd-42" value="IElementViewSpecificShapeComponent" style="swimlane;fontStyle=1;align=center;verticalAlign=top;childLayout=stackLayout;horizontal=1;startSize=26;horizontalStack=0;resizeParent=1;resizeParentMax=0;resizeLast=0;collapsible=1;marginBottom=0;" vertex="1" collapsed="1" parent="1">
          <mxGeometry x="-750" y="320" width="260" height="26" as="geometry">
            <mxRectangle x="270" y="200" width="210" height="86" as="alternateBounds" />
          </mxGeometry>
        </mxCell>
        <mxCell id="WDAkb9en_wS_irwKjnbd-43" value="+ field: type" style="text;strokeColor=none;fillColor=none;align=left;verticalAlign=top;spacingLeft=4;spacingRight=4;overflow=hidden;rotatable=0;points=[[0,0.5],[1,0.5]];portConstraint=eastwest;" vertex="1" parent="WDAkb9en_wS_irwKjnbd-42">
          <mxGeometry y="26" width="260" height="26" as="geometry" />
        </mxCell>
        <mxCell id="WDAkb9en_wS_irwKjnbd-44" value="" style="line;strokeWidth=1;fillColor=none;align=left;verticalAlign=middle;spacingTop=-1;spacingLeft=3;spacingRight=3;rotatable=0;labelPosition=right;points=[];portConstraint=eastwest;" vertex="1" parent="WDAkb9en_wS_irwKjnbd-42">
          <mxGeometry y="52" width="260" height="8" as="geometry" />
        </mxCell>
        <mxCell id="WDAkb9en_wS_irwKjnbd-45" value="+ method(type): type" style="text;strokeColor=none;fillColor=none;align=left;verticalAlign=top;spacingLeft=4;spacingRight=4;overflow=hidden;rotatable=0;points=[[0,0.5],[1,0.5]];portConstraint=eastwest;" vertex="1" parent="WDAkb9en_wS_irwKjnbd-42">
          <mxGeometry y="60" width="260" height="26" as="geometry" />
        </mxCell>
        <mxCell id="WDAkb9en_wS_irwKjnbd-46" value="SimulatedBuildingViewSpecificShapeBehavior" style="swimlane;fontStyle=1;align=center;verticalAlign=top;childLayout=stackLayout;horizontal=1;startSize=26;horizontalStack=0;resizeParent=1;resizeParentMax=0;resizeLast=0;collapsible=1;marginBottom=0;" vertex="1" collapsed="1" parent="1">
          <mxGeometry x="-750" y="370" width="290" height="26" as="geometry">
            <mxRectangle x="270" y="200" width="210" height="86" as="alternateBounds" />
          </mxGeometry>
        </mxCell>
        <mxCell id="WDAkb9en_wS_irwKjnbd-47" value="+ field: type" style="text;strokeColor=none;fillColor=none;align=left;verticalAlign=top;spacingLeft=4;spacingRight=4;overflow=hidden;rotatable=0;points=[[0,0.5],[1,0.5]];portConstraint=eastwest;" vertex="1" parent="WDAkb9en_wS_irwKjnbd-46">
          <mxGeometry y="26" width="290" height="26" as="geometry" />
        </mxCell>
        <mxCell id="WDAkb9en_wS_irwKjnbd-48" value="" style="line;strokeWidth=1;fillColor=none;align=left;verticalAlign=middle;spacingTop=-1;spacingLeft=3;spacingRight=3;rotatable=0;labelPosition=right;points=[];portConstraint=eastwest;" vertex="1" parent="WDAkb9en_wS_irwKjnbd-46">
          <mxGeometry y="52" width="290" height="8" as="geometry" />
        </mxCell>
        <mxCell id="WDAkb9en_wS_irwKjnbd-49" value="+ method(type): type" style="text;strokeColor=none;fillColor=none;align=left;verticalAlign=top;spacingLeft=4;spacingRight=4;overflow=hidden;rotatable=0;points=[[0,0.5],[1,0.5]];portConstraint=eastwest;" vertex="1" parent="WDAkb9en_wS_irwKjnbd-46">
          <mxGeometry y="60" width="290" height="26" as="geometry" />
        </mxCell>
        <mxCell id="WDAkb9en_wS_irwKjnbd-50" value="IElementTransformationComponent" style="swimlane;fontStyle=1;align=center;verticalAlign=top;childLayout=stackLayout;horizontal=1;startSize=26;horizontalStack=0;resizeParent=1;resizeParentMax=0;resizeLast=0;collapsible=1;marginBottom=0;" vertex="1" collapsed="1" parent="1">
          <mxGeometry x="-750" y="420" width="260" height="26" as="geometry">
            <mxRectangle x="270" y="200" width="210" height="86" as="alternateBounds" />
          </mxGeometry>
        </mxCell>
        <mxCell id="WDAkb9en_wS_irwKjnbd-51" value="+ field: type" style="text;strokeColor=none;fillColor=none;align=left;verticalAlign=top;spacingLeft=4;spacingRight=4;overflow=hidden;rotatable=0;points=[[0,0.5],[1,0.5]];portConstraint=eastwest;" vertex="1" parent="WDAkb9en_wS_irwKjnbd-50">
          <mxGeometry y="26" width="260" height="26" as="geometry" />
        </mxCell>
        <mxCell id="WDAkb9en_wS_irwKjnbd-52" value="" style="line;strokeWidth=1;fillColor=none;align=left;verticalAlign=middle;spacingTop=-1;spacingLeft=3;spacingRight=3;rotatable=0;labelPosition=right;points=[];portConstraint=eastwest;" vertex="1" parent="WDAkb9en_wS_irwKjnbd-50">
          <mxGeometry y="52" width="260" height="8" as="geometry" />
        </mxCell>
        <mxCell id="WDAkb9en_wS_irwKjnbd-53" value="+ method(type): type" style="text;strokeColor=none;fillColor=none;align=left;verticalAlign=top;spacingLeft=4;spacingRight=4;overflow=hidden;rotatable=0;points=[[0,0.5],[1,0.5]];portConstraint=eastwest;" vertex="1" parent="WDAkb9en_wS_irwKjnbd-50">
          <mxGeometry y="60" width="260" height="26" as="geometry" />
        </mxCell>
        <mxCell id="WDAkb9en_wS_irwKjnbd-54" value="BmSimulatedBuildingTransformationBehavior" style="swimlane;fontStyle=1;align=center;verticalAlign=top;childLayout=stackLayout;horizontal=1;startSize=26;horizontalStack=0;resizeParent=1;resizeParentMax=0;resizeLast=0;collapsible=1;marginBottom=0;" vertex="1" collapsed="1" parent="1">
          <mxGeometry x="-750" y="470" width="290" height="26" as="geometry">
            <mxRectangle x="270" y="200" width="210" height="86" as="alternateBounds" />
          </mxGeometry>
        </mxCell>
        <mxCell id="WDAkb9en_wS_irwKjnbd-55" value="+ field: type" style="text;strokeColor=none;fillColor=none;align=left;verticalAlign=top;spacingLeft=4;spacingRight=4;overflow=hidden;rotatable=0;points=[[0,0.5],[1,0.5]];portConstraint=eastwest;" vertex="1" parent="WDAkb9en_wS_irwKjnbd-54">
          <mxGeometry y="26" width="290" height="26" as="geometry" />
        </mxCell>
        <mxCell id="WDAkb9en_wS_irwKjnbd-56" value="" style="line;strokeWidth=1;fillColor=none;align=left;verticalAlign=middle;spacingTop=-1;spacingLeft=3;spacingRight=3;rotatable=0;labelPosition=right;points=[];portConstraint=eastwest;" vertex="1" parent="WDAkb9en_wS_irwKjnbd-54">
          <mxGeometry y="52" width="290" height="8" as="geometry" />
        </mxCell>
        <mxCell id="WDAkb9en_wS_irwKjnbd-57" value="+ method(type): type" style="text;strokeColor=none;fillColor=none;align=left;verticalAlign=top;spacingLeft=4;spacingRight=4;overflow=hidden;rotatable=0;points=[[0,0.5],[1,0.5]];portConstraint=eastwest;" vertex="1" parent="WDAkb9en_wS_irwKjnbd-54">
          <mxGeometry y="60" width="290" height="26" as="geometry" />
        </mxCell>
        <mxCell id="WDAkb9en_wS_irwKjnbd-60" value="IBmElementCopyPasteComponent" style="swimlane;fontStyle=1;align=center;verticalAlign=top;childLayout=stackLayout;horizontal=1;startSize=26;horizontalStack=0;resizeParent=1;resizeParentMax=0;resizeLast=0;collapsible=1;marginBottom=0;" vertex="1" collapsed="1" parent="1">
          <mxGeometry x="-750" y="527" width="260" height="26" as="geometry">
            <mxRectangle x="270" y="200" width="210" height="86" as="alternateBounds" />
          </mxGeometry>
        </mxCell>
        <mxCell id="WDAkb9en_wS_irwKjnbd-61" value="+ field: type" style="text;strokeColor=none;fillColor=none;align=left;verticalAlign=top;spacingLeft=4;spacingRight=4;overflow=hidden;rotatable=0;points=[[0,0.5],[1,0.5]];portConstraint=eastwest;" vertex="1" parent="WDAkb9en_wS_irwKjnbd-60">
          <mxGeometry y="26" width="260" height="26" as="geometry" />
        </mxCell>
        <mxCell id="WDAkb9en_wS_irwKjnbd-62" value="" style="line;strokeWidth=1;fillColor=none;align=left;verticalAlign=middle;spacingTop=-1;spacingLeft=3;spacingRight=3;rotatable=0;labelPosition=right;points=[];portConstraint=eastwest;" vertex="1" parent="WDAkb9en_wS_irwKjnbd-60">
          <mxGeometry y="52" width="260" height="8" as="geometry" />
        </mxCell>
        <mxCell id="WDAkb9en_wS_irwKjnbd-63" value="+ method(type): type" style="text;strokeColor=none;fillColor=none;align=left;verticalAlign=top;spacingLeft=4;spacingRight=4;overflow=hidden;rotatable=0;points=[[0,0.5],[1,0.5]];portConstraint=eastwest;" vertex="1" parent="WDAkb9en_wS_irwKjnbd-60">
          <mxGeometry y="60" width="260" height="26" as="geometry" />
        </mxCell>
        <mxCell id="WDAkb9en_wS_irwKjnbd-64" value="BmSimulatedBuildingCopyPasteBehavior" style="swimlane;fontStyle=1;align=center;verticalAlign=top;childLayout=stackLayout;horizontal=1;startSize=26;horizontalStack=0;resizeParent=1;resizeParentMax=0;resizeLast=0;collapsible=1;marginBottom=0;" vertex="1" collapsed="1" parent="1">
          <mxGeometry x="-750" y="577" width="290" height="26" as="geometry">
            <mxRectangle x="270" y="200" width="210" height="86" as="alternateBounds" />
          </mxGeometry>
        </mxCell>
        <mxCell id="WDAkb9en_wS_irwKjnbd-65" value="+ field: type" style="text;strokeColor=none;fillColor=none;align=left;verticalAlign=top;spacingLeft=4;spacingRight=4;overflow=hidden;rotatable=0;points=[[0,0.5],[1,0.5]];portConstraint=eastwest;" vertex="1" parent="WDAkb9en_wS_irwKjnbd-64">
          <mxGeometry y="26" width="290" height="26" as="geometry" />
        </mxCell>
        <mxCell id="WDAkb9en_wS_irwKjnbd-66" value="" style="line;strokeWidth=1;fillColor=none;align=left;verticalAlign=middle;spacingTop=-1;spacingLeft=3;spacingRight=3;rotatable=0;labelPosition=right;points=[];portConstraint=eastwest;" vertex="1" parent="WDAkb9en_wS_irwKjnbd-64">
          <mxGeometry y="52" width="290" height="8" as="geometry" />
        </mxCell>
        <mxCell id="WDAkb9en_wS_irwKjnbd-67" value="+ method(type): type" style="text;strokeColor=none;fillColor=none;align=left;verticalAlign=top;spacingLeft=4;spacingRight=4;overflow=hidden;rotatable=0;points=[[0,0.5],[1,0.5]];portConstraint=eastwest;" vertex="1" parent="WDAkb9en_wS_irwKjnbd-64">
          <mxGeometry y="60" width="290" height="26" as="geometry" />
        </mxCell>
        <mxCell id="WDAkb9en_wS_irwKjnbd-68" value="ICalculator" style="swimlane;fontStyle=1;align=center;verticalAlign=top;childLayout=stackLayout;horizontal=1;startSize=26;horizontalStack=0;resizeParent=1;resizeParentMax=0;resizeLast=0;collapsible=1;marginBottom=0;" vertex="1" collapsed="1" parent="1">
          <mxGeometry x="-760" y="890" width="270" height="26" as="geometry">
            <mxRectangle x="270" y="200" width="210" height="86" as="alternateBounds" />
          </mxGeometry>
        </mxCell>
        <mxCell id="WDAkb9en_wS_irwKjnbd-69" value="+ field: type" style="text;strokeColor=none;fillColor=none;align=left;verticalAlign=top;spacingLeft=4;spacingRight=4;overflow=hidden;rotatable=0;points=[[0,0.5],[1,0.5]];portConstraint=eastwest;" vertex="1" parent="WDAkb9en_wS_irwKjnbd-68">
          <mxGeometry y="26" width="270" height="26" as="geometry" />
        </mxCell>
        <mxCell id="WDAkb9en_wS_irwKjnbd-70" value="" style="line;strokeWidth=1;fillColor=none;align=left;verticalAlign=middle;spacingTop=-1;spacingLeft=3;spacingRight=3;rotatable=0;labelPosition=right;points=[];portConstraint=eastwest;" vertex="1" parent="WDAkb9en_wS_irwKjnbd-68">
          <mxGeometry y="52" width="270" height="8" as="geometry" />
        </mxCell>
        <mxCell id="WDAkb9en_wS_irwKjnbd-71" value="+ method(type): type" style="text;strokeColor=none;fillColor=none;align=left;verticalAlign=top;spacingLeft=4;spacingRight=4;overflow=hidden;rotatable=0;points=[[0,0.5],[1,0.5]];portConstraint=eastwest;" vertex="1" parent="WDAkb9en_wS_irwKjnbd-68">
          <mxGeometry y="60" width="270" height="26" as="geometry" />
        </mxCell>
        <mxCell id="WDAkb9en_wS_irwKjnbd-72" value="BmCalculatorBase" style="swimlane;fontStyle=1;align=center;verticalAlign=top;childLayout=stackLayout;horizontal=1;startSize=26;horizontalStack=0;resizeParent=1;resizeParentMax=0;resizeLast=0;collapsible=1;marginBottom=0;" vertex="1" collapsed="1" parent="1">
          <mxGeometry x="-760" y="950" width="270" height="26" as="geometry">
            <mxRectangle x="270" y="200" width="210" height="86" as="alternateBounds" />
          </mxGeometry>
        </mxCell>
        <mxCell id="WDAkb9en_wS_irwKjnbd-73" value="+ field: type" style="text;strokeColor=none;fillColor=none;align=left;verticalAlign=top;spacingLeft=4;spacingRight=4;overflow=hidden;rotatable=0;points=[[0,0.5],[1,0.5]];portConstraint=eastwest;" vertex="1" parent="WDAkb9en_wS_irwKjnbd-72">
          <mxGeometry y="26" width="270" height="26" as="geometry" />
        </mxCell>
        <mxCell id="WDAkb9en_wS_irwKjnbd-74" value="" style="line;strokeWidth=1;fillColor=none;align=left;verticalAlign=middle;spacingTop=-1;spacingLeft=3;spacingRight=3;rotatable=0;labelPosition=right;points=[];portConstraint=eastwest;" vertex="1" parent="WDAkb9en_wS_irwKjnbd-72">
          <mxGeometry y="52" width="270" height="8" as="geometry" />
        </mxCell>
        <mxCell id="WDAkb9en_wS_irwKjnbd-75" value="+ method(type): type" style="text;strokeColor=none;fillColor=none;align=left;verticalAlign=top;spacingLeft=4;spacingRight=4;overflow=hidden;rotatable=0;points=[[0,0.5],[1,0.5]];portConstraint=eastwest;" vertex="1" parent="WDAkb9en_wS_irwKjnbd-72">
          <mxGeometry y="60" width="270" height="26" as="geometry" />
        </mxCell>
        <mxCell id="WDAkb9en_wS_irwKjnbd-76" value="BmSimulatedBuildingGripPointPositionCalculator" style="swimlane;fontStyle=1;align=center;verticalAlign=top;childLayout=stackLayout;horizontal=1;startSize=26;horizontalStack=0;resizeParent=1;resizeParentMax=0;resizeLast=0;collapsible=1;marginBottom=0;" vertex="1" collapsed="1" parent="1">
          <mxGeometry x="-760" y="1014" width="320" height="26" as="geometry">
            <mxRectangle x="270" y="200" width="210" height="86" as="alternateBounds" />
          </mxGeometry>
        </mxCell>
        <mxCell id="WDAkb9en_wS_irwKjnbd-77" value="+ field: type" style="text;strokeColor=none;fillColor=none;align=left;verticalAlign=top;spacingLeft=4;spacingRight=4;overflow=hidden;rotatable=0;points=[[0,0.5],[1,0.5]];portConstraint=eastwest;" vertex="1" parent="WDAkb9en_wS_irwKjnbd-76">
          <mxGeometry y="26" width="320" height="26" as="geometry" />
        </mxCell>
        <mxCell id="WDAkb9en_wS_irwKjnbd-78" value="" style="line;strokeWidth=1;fillColor=none;align=left;verticalAlign=middle;spacingTop=-1;spacingLeft=3;spacingRight=3;rotatable=0;labelPosition=right;points=[];portConstraint=eastwest;" vertex="1" parent="WDAkb9en_wS_irwKjnbd-76">
          <mxGeometry y="52" width="320" height="8" as="geometry" />
        </mxCell>
        <mxCell id="WDAkb9en_wS_irwKjnbd-79" value="+ method(type): type" style="text;strokeColor=none;fillColor=none;align=left;verticalAlign=top;spacingLeft=4;spacingRight=4;overflow=hidden;rotatable=0;points=[[0,0.5],[1,0.5]];portConstraint=eastwest;" vertex="1" parent="WDAkb9en_wS_irwKjnbd-76">
          <mxGeometry y="60" width="320" height="26" as="geometry" />
        </mxCell>
        <mxCell id="WDAkb9en_wS_irwKjnbd-80" value="IElementShapeHandleBehavior" style="swimlane;fontStyle=1;align=center;verticalAlign=top;childLayout=stackLayout;horizontal=1;startSize=26;horizontalStack=0;resizeParent=1;resizeParentMax=0;resizeLast=0;collapsible=1;marginBottom=0;" vertex="1" collapsed="1" parent="1">
          <mxGeometry x="-750" y="630" width="260" height="26" as="geometry">
            <mxRectangle x="270" y="200" width="210" height="86" as="alternateBounds" />
          </mxGeometry>
        </mxCell>
        <mxCell id="WDAkb9en_wS_irwKjnbd-81" value="+ field: type" style="text;strokeColor=none;fillColor=none;align=left;verticalAlign=top;spacingLeft=4;spacingRight=4;overflow=hidden;rotatable=0;points=[[0,0.5],[1,0.5]];portConstraint=eastwest;" vertex="1" parent="WDAkb9en_wS_irwKjnbd-80">
          <mxGeometry y="26" width="260" height="26" as="geometry" />
        </mxCell>
        <mxCell id="WDAkb9en_wS_irwKjnbd-82" value="" style="line;strokeWidth=1;fillColor=none;align=left;verticalAlign=middle;spacingTop=-1;spacingLeft=3;spacingRight=3;rotatable=0;labelPosition=right;points=[];portConstraint=eastwest;" vertex="1" parent="WDAkb9en_wS_irwKjnbd-80">
          <mxGeometry y="52" width="260" height="8" as="geometry" />
        </mxCell>
        <mxCell id="WDAkb9en_wS_irwKjnbd-83" value="+ method(type): type" style="text;strokeColor=none;fillColor=none;align=left;verticalAlign=top;spacingLeft=4;spacingRight=4;overflow=hidden;rotatable=0;points=[[0,0.5],[1,0.5]];portConstraint=eastwest;" vertex="1" parent="WDAkb9en_wS_irwKjnbd-80">
          <mxGeometry y="60" width="260" height="26" as="geometry" />
        </mxCell>
        <mxCell id="WDAkb9en_wS_irwKjnbd-84" value="BmSimulatedBuildingGripPointBehavior" style="swimlane;fontStyle=1;align=center;verticalAlign=top;childLayout=stackLayout;horizontal=1;startSize=26;horizontalStack=0;resizeParent=1;resizeParentMax=0;resizeLast=0;collapsible=1;marginBottom=0;" vertex="1" collapsed="1" parent="1">
          <mxGeometry x="-750" y="680" width="290" height="26" as="geometry">
            <mxRectangle x="270" y="200" width="210" height="86" as="alternateBounds" />
          </mxGeometry>
        </mxCell>
        <mxCell id="WDAkb9en_wS_irwKjnbd-85" value="+ field: type" style="text;strokeColor=none;fillColor=none;align=left;verticalAlign=top;spacingLeft=4;spacingRight=4;overflow=hidden;rotatable=0;points=[[0,0.5],[1,0.5]];portConstraint=eastwest;" vertex="1" parent="WDAkb9en_wS_irwKjnbd-84">
          <mxGeometry y="26" width="290" height="26" as="geometry" />
        </mxCell>
        <mxCell id="WDAkb9en_wS_irwKjnbd-86" value="" style="line;strokeWidth=1;fillColor=none;align=left;verticalAlign=middle;spacingTop=-1;spacingLeft=3;spacingRight=3;rotatable=0;labelPosition=right;points=[];portConstraint=eastwest;" vertex="1" parent="WDAkb9en_wS_irwKjnbd-84">
          <mxGeometry y="52" width="290" height="8" as="geometry" />
        </mxCell>
        <mxCell id="WDAkb9en_wS_irwKjnbd-87" value="+ method(type): type" style="text;strokeColor=none;fillColor=none;align=left;verticalAlign=top;spacingLeft=4;spacingRight=4;overflow=hidden;rotatable=0;points=[[0,0.5],[1,0.5]];portConstraint=eastwest;" vertex="1" parent="WDAkb9en_wS_irwKjnbd-84">
          <mxGeometry y="60" width="290" height="26" as="geometry" />
        </mxCell>
        <mxCell id="WDAkb9en_wS_irwKjnbd-88" value="IElementCopyStrategyComponent" style="swimlane;fontStyle=1;align=center;verticalAlign=top;childLayout=stackLayout;horizontal=1;startSize=26;horizontalStack=0;resizeParent=1;resizeParentMax=0;resizeLast=0;collapsible=1;marginBottom=0;" vertex="1" collapsed="1" parent="1">
          <mxGeometry x="-360" y="527" width="260" height="26" as="geometry">
            <mxRectangle x="270" y="200" width="210" height="86" as="alternateBounds" />
          </mxGeometry>
        </mxCell>
        <mxCell id="WDAkb9en_wS_irwKjnbd-89" value="+ field: type" style="text;strokeColor=none;fillColor=none;align=left;verticalAlign=top;spacingLeft=4;spacingRight=4;overflow=hidden;rotatable=0;points=[[0,0.5],[1,0.5]];portConstraint=eastwest;" vertex="1" parent="WDAkb9en_wS_irwKjnbd-88">
          <mxGeometry y="26" width="260" height="26" as="geometry" />
        </mxCell>
        <mxCell id="WDAkb9en_wS_irwKjnbd-90" value="" style="line;strokeWidth=1;fillColor=none;align=left;verticalAlign=middle;spacingTop=-1;spacingLeft=3;spacingRight=3;rotatable=0;labelPosition=right;points=[];portConstraint=eastwest;" vertex="1" parent="WDAkb9en_wS_irwKjnbd-88">
          <mxGeometry y="52" width="260" height="8" as="geometry" />
        </mxCell>
        <mxCell id="WDAkb9en_wS_irwKjnbd-91" value="+ method(type): type" style="text;strokeColor=none;fillColor=none;align=left;verticalAlign=top;spacingLeft=4;spacingRight=4;overflow=hidden;rotatable=0;points=[[0,0.5],[1,0.5]];portConstraint=eastwest;" vertex="1" parent="WDAkb9en_wS_irwKjnbd-88">
          <mxGeometry y="60" width="260" height="26" as="geometry" />
        </mxCell>
        <mxCell id="WDAkb9en_wS_irwKjnbd-92" value="BmSimulatedBuildingCopyStrategyComponent" style="swimlane;fontStyle=1;align=center;verticalAlign=top;childLayout=stackLayout;horizontal=1;startSize=26;horizontalStack=0;resizeParent=1;resizeParentMax=0;resizeLast=0;collapsible=1;marginBottom=0;" vertex="1" collapsed="1" parent="1">
          <mxGeometry x="-400" y="577" width="330" height="26" as="geometry">
            <mxRectangle x="270" y="200" width="210" height="86" as="alternateBounds" />
          </mxGeometry>
        </mxCell>
        <mxCell id="WDAkb9en_wS_irwKjnbd-93" value="+ field: type" style="text;strokeColor=none;fillColor=none;align=left;verticalAlign=top;spacingLeft=4;spacingRight=4;overflow=hidden;rotatable=0;points=[[0,0.5],[1,0.5]];portConstraint=eastwest;" vertex="1" parent="WDAkb9en_wS_irwKjnbd-92">
          <mxGeometry y="26" width="330" height="26" as="geometry" />
        </mxCell>
        <mxCell id="WDAkb9en_wS_irwKjnbd-94" value="" style="line;strokeWidth=1;fillColor=none;align=left;verticalAlign=middle;spacingTop=-1;spacingLeft=3;spacingRight=3;rotatable=0;labelPosition=right;points=[];portConstraint=eastwest;" vertex="1" parent="WDAkb9en_wS_irwKjnbd-92">
          <mxGeometry y="52" width="330" height="8" as="geometry" />
        </mxCell>
        <mxCell id="WDAkb9en_wS_irwKjnbd-95" value="+ method(type): type" style="text;strokeColor=none;fillColor=none;align=left;verticalAlign=top;spacingLeft=4;spacingRight=4;overflow=hidden;rotatable=0;points=[[0,0.5],[1,0.5]];portConstraint=eastwest;" vertex="1" parent="WDAkb9en_wS_irwKjnbd-92">
          <mxGeometry y="60" width="330" height="26" as="geometry" />
        </mxCell>
        <mxCell id="WDAkb9en_wS_irwKjnbd-96" value="IElementRegenerationComponent" style="swimlane;fontStyle=1;align=center;verticalAlign=top;childLayout=stackLayout;horizontal=1;startSize=26;horizontalStack=0;resizeParent=1;resizeParentMax=0;resizeLast=0;collapsible=1;marginBottom=0;" vertex="1" collapsed="1" parent="1">
          <mxGeometry x="-750" y="730" width="260" height="26" as="geometry">
            <mxRectangle x="270" y="200" width="210" height="86" as="alternateBounds" />
          </mxGeometry>
        </mxCell>
        <mxCell id="WDAkb9en_wS_irwKjnbd-97" value="+ field: type" style="text;strokeColor=none;fillColor=none;align=left;verticalAlign=top;spacingLeft=4;spacingRight=4;overflow=hidden;rotatable=0;points=[[0,0.5],[1,0.5]];portConstraint=eastwest;" vertex="1" parent="WDAkb9en_wS_irwKjnbd-96">
          <mxGeometry y="26" width="260" height="26" as="geometry" />
        </mxCell>
        <mxCell id="WDAkb9en_wS_irwKjnbd-98" value="" style="line;strokeWidth=1;fillColor=none;align=left;verticalAlign=middle;spacingTop=-1;spacingLeft=3;spacingRight=3;rotatable=0;labelPosition=right;points=[];portConstraint=eastwest;" vertex="1" parent="WDAkb9en_wS_irwKjnbd-96">
          <mxGeometry y="52" width="260" height="8" as="geometry" />
        </mxCell>
        <mxCell id="WDAkb9en_wS_irwKjnbd-99" value="+ method(type): type" style="text;strokeColor=none;fillColor=none;align=left;verticalAlign=top;spacingLeft=4;spacingRight=4;overflow=hidden;rotatable=0;points=[[0,0.5],[1,0.5]];portConstraint=eastwest;" vertex="1" parent="WDAkb9en_wS_irwKjnbd-96">
          <mxGeometry y="60" width="260" height="26" as="geometry" />
        </mxCell>
        <mxCell id="WDAkb9en_wS_irwKjnbd-100" value="BmSimulatedBuildingRegenerationBehavior" style="swimlane;fontStyle=1;align=center;verticalAlign=top;childLayout=stackLayout;horizontal=1;startSize=26;horizontalStack=0;resizeParent=1;resizeParentMax=0;resizeLast=0;collapsible=1;marginBottom=0;" vertex="1" collapsed="1" parent="1">
          <mxGeometry x="-750" y="780" width="290" height="26" as="geometry">
            <mxRectangle x="270" y="200" width="210" height="86" as="alternateBounds" />
          </mxGeometry>
        </mxCell>
        <mxCell id="WDAkb9en_wS_irwKjnbd-101" value="+ field: type" style="text;strokeColor=none;fillColor=none;align=left;verticalAlign=top;spacingLeft=4;spacingRight=4;overflow=hidden;rotatable=0;points=[[0,0.5],[1,0.5]];portConstraint=eastwest;" vertex="1" parent="WDAkb9en_wS_irwKjnbd-100">
          <mxGeometry y="26" width="290" height="26" as="geometry" />
        </mxCell>
        <mxCell id="WDAkb9en_wS_irwKjnbd-102" value="" style="line;strokeWidth=1;fillColor=none;align=left;verticalAlign=middle;spacingTop=-1;spacingLeft=3;spacingRight=3;rotatable=0;labelPosition=right;points=[];portConstraint=eastwest;" vertex="1" parent="WDAkb9en_wS_irwKjnbd-100">
          <mxGeometry y="52" width="290" height="8" as="geometry" />
        </mxCell>
        <mxCell id="WDAkb9en_wS_irwKjnbd-103" value="+ method(type): type" style="text;strokeColor=none;fillColor=none;align=left;verticalAlign=top;spacingLeft=4;spacingRight=4;overflow=hidden;rotatable=0;points=[[0,0.5],[1,0.5]];portConstraint=eastwest;" vertex="1" parent="WDAkb9en_wS_irwKjnbd-100">
          <mxGeometry y="60" width="290" height="26" as="geometry" />
        </mxCell>
        <mxCell id="WDAkb9en_wS_irwKjnbd-104" value="ActionSimulatedBuildingBooleanOperation" style="swimlane;fontStyle=1;align=center;verticalAlign=top;childLayout=stackLayout;horizontal=1;startSize=26;horizontalStack=0;resizeParent=1;resizeParentMax=0;resizeLast=0;collapsible=1;marginBottom=0;" vertex="1" collapsed="1" parent="1">
          <mxGeometry x="1560" y="603" width="270" height="26" as="geometry">
            <mxRectangle x="270" y="200" width="210" height="86" as="alternateBounds" />
          </mxGeometry>
        </mxCell>
        <mxCell id="WDAkb9en_wS_irwKjnbd-105" value="+ field: type" style="text;strokeColor=none;fillColor=none;align=left;verticalAlign=top;spacingLeft=4;spacingRight=4;overflow=hidden;rotatable=0;points=[[0,0.5],[1,0.5]];portConstraint=eastwest;" vertex="1" parent="WDAkb9en_wS_irwKjnbd-104">
          <mxGeometry y="26" width="270" height="26" as="geometry" />
        </mxCell>
        <mxCell id="WDAkb9en_wS_irwKjnbd-106" value="" style="line;strokeWidth=1;fillColor=none;align=left;verticalAlign=middle;spacingTop=-1;spacingLeft=3;spacingRight=3;rotatable=0;labelPosition=right;points=[];portConstraint=eastwest;" vertex="1" parent="WDAkb9en_wS_irwKjnbd-104">
          <mxGeometry y="52" width="270" height="8" as="geometry" />
        </mxCell>
        <mxCell id="WDAkb9en_wS_irwKjnbd-107" value="+ method(type): type" style="text;strokeColor=none;fillColor=none;align=left;verticalAlign=top;spacingLeft=4;spacingRight=4;overflow=hidden;rotatable=0;points=[[0,0.5],[1,0.5]];portConstraint=eastwest;" vertex="1" parent="WDAkb9en_wS_irwKjnbd-104">
          <mxGeometry y="60" width="270" height="26" as="geometry" />
        </mxCell>
        <mxCell id="WDAkb9en_wS_irwKjnbd-108" value="BmCreateSimulatedBuildingCellBodyCmdBase" style="swimlane;fontStyle=1;align=center;verticalAlign=top;childLayout=stackLayout;horizontal=1;startSize=26;horizontalStack=0;resizeParent=1;resizeParentMax=0;resizeLast=0;collapsible=1;marginBottom=0;" vertex="1" collapsed="1" parent="1">
          <mxGeometry x="-140" y="950" width="310" height="26" as="geometry">
            <mxRectangle x="270" y="200" width="210" height="86" as="alternateBounds" />
          </mxGeometry>
        </mxCell>
        <mxCell id="WDAkb9en_wS_irwKjnbd-109" value="+ field: type" style="text;strokeColor=none;fillColor=none;align=left;verticalAlign=top;spacingLeft=4;spacingRight=4;overflow=hidden;rotatable=0;points=[[0,0.5],[1,0.5]];portConstraint=eastwest;" vertex="1" parent="WDAkb9en_wS_irwKjnbd-108">
          <mxGeometry y="26" width="310" height="26" as="geometry" />
        </mxCell>
        <mxCell id="WDAkb9en_wS_irwKjnbd-110" value="" style="line;strokeWidth=1;fillColor=none;align=left;verticalAlign=middle;spacingTop=-1;spacingLeft=3;spacingRight=3;rotatable=0;labelPosition=right;points=[];portConstraint=eastwest;" vertex="1" parent="WDAkb9en_wS_irwKjnbd-108">
          <mxGeometry y="52" width="310" height="8" as="geometry" />
        </mxCell>
        <mxCell id="WDAkb9en_wS_irwKjnbd-111" value="+ method(type): type" style="text;strokeColor=none;fillColor=none;align=left;verticalAlign=top;spacingLeft=4;spacingRight=4;overflow=hidden;rotatable=0;points=[[0,0.5],[1,0.5]];portConstraint=eastwest;" vertex="1" parent="WDAkb9en_wS_irwKjnbd-108">
          <mxGeometry y="60" width="310" height="26" as="geometry" />
        </mxCell>
        <mxCell id="WDAkb9en_wS_irwKjnbd-112" value="BmCreateSimulatedBuildingCellBodyUniteCmd" style="swimlane;fontStyle=1;align=center;verticalAlign=top;childLayout=stackLayout;horizontal=1;startSize=26;horizontalStack=0;resizeParent=1;resizeParentMax=0;resizeLast=0;collapsible=1;marginBottom=0;" vertex="1" collapsed="1" parent="1">
          <mxGeometry x="-140" y="1014" width="310" height="26" as="geometry">
            <mxRectangle x="270" y="200" width="210" height="86" as="alternateBounds" />
          </mxGeometry>
        </mxCell>
        <mxCell id="WDAkb9en_wS_irwKjnbd-113" value="+ field: type" style="text;strokeColor=none;fillColor=none;align=left;verticalAlign=top;spacingLeft=4;spacingRight=4;overflow=hidden;rotatable=0;points=[[0,0.5],[1,0.5]];portConstraint=eastwest;" vertex="1" parent="WDAkb9en_wS_irwKjnbd-112">
          <mxGeometry y="26" width="310" height="26" as="geometry" />
        </mxCell>
        <mxCell id="WDAkb9en_wS_irwKjnbd-114" value="" style="line;strokeWidth=1;fillColor=none;align=left;verticalAlign=middle;spacingTop=-1;spacingLeft=3;spacingRight=3;rotatable=0;labelPosition=right;points=[];portConstraint=eastwest;" vertex="1" parent="WDAkb9en_wS_irwKjnbd-112">
          <mxGeometry y="52" width="310" height="8" as="geometry" />
        </mxCell>
        <mxCell id="WDAkb9en_wS_irwKjnbd-115" value="+ method(type): type" style="text;strokeColor=none;fillColor=none;align=left;verticalAlign=top;spacingLeft=4;spacingRight=4;overflow=hidden;rotatable=0;points=[[0,0.5],[1,0.5]];portConstraint=eastwest;" vertex="1" parent="WDAkb9en_wS_irwKjnbd-112">
          <mxGeometry y="60" width="310" height="26" as="geometry" />
        </mxCell>
        <mxCell id="WDAkb9en_wS_irwKjnbd-116" value="BmCreateSimulatedBuildingCellBodyIntersectCmd" style="swimlane;fontStyle=1;align=center;verticalAlign=top;childLayout=stackLayout;horizontal=1;startSize=26;horizontalStack=0;resizeParent=1;resizeParentMax=0;resizeLast=0;collapsible=1;marginBottom=0;" vertex="1" collapsed="1" parent="1">
          <mxGeometry x="-140" y="1070" width="310" height="26" as="geometry">
            <mxRectangle x="270" y="200" width="210" height="86" as="alternateBounds" />
          </mxGeometry>
        </mxCell>
        <mxCell id="WDAkb9en_wS_irwKjnbd-117" value="+ field: type" style="text;strokeColor=none;fillColor=none;align=left;verticalAlign=top;spacingLeft=4;spacingRight=4;overflow=hidden;rotatable=0;points=[[0,0.5],[1,0.5]];portConstraint=eastwest;" vertex="1" parent="WDAkb9en_wS_irwKjnbd-116">
          <mxGeometry y="26" width="310" height="26" as="geometry" />
        </mxCell>
        <mxCell id="WDAkb9en_wS_irwKjnbd-118" value="" style="line;strokeWidth=1;fillColor=none;align=left;verticalAlign=middle;spacingTop=-1;spacingLeft=3;spacingRight=3;rotatable=0;labelPosition=right;points=[];portConstraint=eastwest;" vertex="1" parent="WDAkb9en_wS_irwKjnbd-116">
          <mxGeometry y="52" width="310" height="8" as="geometry" />
        </mxCell>
        <mxCell id="WDAkb9en_wS_irwKjnbd-119" value="+ method(type): type" style="text;strokeColor=none;fillColor=none;align=left;verticalAlign=top;spacingLeft=4;spacingRight=4;overflow=hidden;rotatable=0;points=[[0,0.5],[1,0.5]];portConstraint=eastwest;" vertex="1" parent="WDAkb9en_wS_irwKjnbd-116">
          <mxGeometry y="60" width="310" height="26" as="geometry" />
        </mxCell>
        <mxCell id="WDAkb9en_wS_irwKjnbd-120" value="BmFinishSimulatedBuildingCellBodySubstractCmd" style="swimlane;fontStyle=1;align=center;verticalAlign=top;childLayout=stackLayout;horizontal=1;startSize=26;horizontalStack=0;resizeParent=1;resizeParentMax=0;resizeLast=0;collapsible=1;marginBottom=0;" vertex="1" collapsed="1" parent="1">
          <mxGeometry x="-140" y="1130" width="310" height="26" as="geometry">
            <mxRectangle x="270" y="200" width="210" height="86" as="alternateBounds" />
          </mxGeometry>
        </mxCell>
        <mxCell id="WDAkb9en_wS_irwKjnbd-121" value="+ field: type" style="text;strokeColor=none;fillColor=none;align=left;verticalAlign=top;spacingLeft=4;spacingRight=4;overflow=hidden;rotatable=0;points=[[0,0.5],[1,0.5]];portConstraint=eastwest;" vertex="1" parent="WDAkb9en_wS_irwKjnbd-120">
          <mxGeometry y="26" width="310" height="26" as="geometry" />
        </mxCell>
        <mxCell id="WDAkb9en_wS_irwKjnbd-122" value="" style="line;strokeWidth=1;fillColor=none;align=left;verticalAlign=middle;spacingTop=-1;spacingLeft=3;spacingRight=3;rotatable=0;labelPosition=right;points=[];portConstraint=eastwest;" vertex="1" parent="WDAkb9en_wS_irwKjnbd-120">
          <mxGeometry y="52" width="310" height="8" as="geometry" />
        </mxCell>
        <mxCell id="WDAkb9en_wS_irwKjnbd-123" value="+ method(type): type" style="text;strokeColor=none;fillColor=none;align=left;verticalAlign=top;spacingLeft=4;spacingRight=4;overflow=hidden;rotatable=0;points=[[0,0.5],[1,0.5]];portConstraint=eastwest;" vertex="1" parent="WDAkb9en_wS_irwKjnbd-120">
          <mxGeometry y="60" width="310" height="26" as="geometry" />
        </mxCell>
        <mxCell id="WDAkb9en_wS_irwKjnbd-124" value="BmSimulatedBuildingCellGrepCalculator" style="swimlane;fontStyle=1;align=center;verticalAlign=top;childLayout=stackLayout;horizontal=1;startSize=26;horizontalStack=0;resizeParent=1;resizeParentMax=0;resizeLast=0;collapsible=1;marginBottom=0;" vertex="1" collapsed="1" parent="1">
          <mxGeometry x="-760" y="1073" width="320" height="26" as="geometry">
            <mxRectangle x="270" y="200" width="210" height="86" as="alternateBounds" />
          </mxGeometry>
        </mxCell>
        <mxCell id="WDAkb9en_wS_irwKjnbd-125" value="+ field: type" style="text;strokeColor=none;fillColor=none;align=left;verticalAlign=top;spacingLeft=4;spacingRight=4;overflow=hidden;rotatable=0;points=[[0,0.5],[1,0.5]];portConstraint=eastwest;" vertex="1" parent="WDAkb9en_wS_irwKjnbd-124">
          <mxGeometry y="26" width="320" height="26" as="geometry" />
        </mxCell>
        <mxCell id="WDAkb9en_wS_irwKjnbd-126" value="" style="line;strokeWidth=1;fillColor=none;align=left;verticalAlign=middle;spacingTop=-1;spacingLeft=3;spacingRight=3;rotatable=0;labelPosition=right;points=[];portConstraint=eastwest;" vertex="1" parent="WDAkb9en_wS_irwKjnbd-124">
          <mxGeometry y="52" width="320" height="8" as="geometry" />
        </mxCell>
        <mxCell id="WDAkb9en_wS_irwKjnbd-127" value="+ method(type): type" style="text;strokeColor=none;fillColor=none;align=left;verticalAlign=top;spacingLeft=4;spacingRight=4;overflow=hidden;rotatable=0;points=[[0,0.5],[1,0.5]];portConstraint=eastwest;" vertex="1" parent="WDAkb9en_wS_irwKjnbd-124">
          <mxGeometry y="60" width="320" height="26" as="geometry" />
        </mxCell>
        <mxCell id="WDAkb9en_wS_irwKjnbd-128" value="BmSimulatedBuildingGrepCalculator" style="swimlane;fontStyle=1;align=center;verticalAlign=top;childLayout=stackLayout;horizontal=1;startSize=26;horizontalStack=0;resizeParent=1;resizeParentMax=0;resizeLast=0;collapsible=1;marginBottom=0;" vertex="1" collapsed="1" parent="1">
          <mxGeometry x="-760" y="1133" width="320" height="26" as="geometry">
            <mxRectangle x="270" y="200" width="210" height="86" as="alternateBounds" />
          </mxGeometry>
        </mxCell>
        <mxCell id="WDAkb9en_wS_irwKjnbd-129" value="+ field: type" style="text;strokeColor=none;fillColor=none;align=left;verticalAlign=top;spacingLeft=4;spacingRight=4;overflow=hidden;rotatable=0;points=[[0,0.5],[1,0.5]];portConstraint=eastwest;" vertex="1" parent="WDAkb9en_wS_irwKjnbd-128">
          <mxGeometry y="26" width="320" height="26" as="geometry" />
        </mxCell>
        <mxCell id="WDAkb9en_wS_irwKjnbd-130" value="" style="line;strokeWidth=1;fillColor=none;align=left;verticalAlign=middle;spacingTop=-1;spacingLeft=3;spacingRight=3;rotatable=0;labelPosition=right;points=[];portConstraint=eastwest;" vertex="1" parent="WDAkb9en_wS_irwKjnbd-128">
          <mxGeometry y="52" width="320" height="8" as="geometry" />
        </mxCell>
        <mxCell id="WDAkb9en_wS_irwKjnbd-131" value="+ method(type): type" style="text;strokeColor=none;fillColor=none;align=left;verticalAlign=top;spacingLeft=4;spacingRight=4;overflow=hidden;rotatable=0;points=[[0,0.5],[1,0.5]];portConstraint=eastwest;" vertex="1" parent="WDAkb9en_wS_irwKjnbd-128">
          <mxGeometry y="60" width="320" height="26" as="geometry" />
        </mxCell>
        <mxCell id="WDAkb9en_wS_irwKjnbd-132" value="IBmSimulatedBuildingCell" style="swimlane;fontStyle=1;align=center;verticalAlign=top;childLayout=stackLayout;horizontal=1;startSize=26;horizontalStack=0;resizeParent=1;resizeParentMax=0;resizeLast=0;collapsible=1;marginBottom=0;" vertex="1" collapsed="1" parent="1">
          <mxGeometry x="260" y="90" width="200" height="26" as="geometry">
            <mxRectangle x="270" y="200" width="210" height="86" as="alternateBounds" />
          </mxGeometry>
        </mxCell>
        <mxCell id="WDAkb9en_wS_irwKjnbd-133" value="+ field: type" style="text;strokeColor=none;fillColor=none;align=left;verticalAlign=top;spacingLeft=4;spacingRight=4;overflow=hidden;rotatable=0;points=[[0,0.5],[1,0.5]];portConstraint=eastwest;" vertex="1" parent="WDAkb9en_wS_irwKjnbd-132">
          <mxGeometry y="26" width="200" height="26" as="geometry" />
        </mxCell>
        <mxCell id="WDAkb9en_wS_irwKjnbd-134" value="" style="line;strokeWidth=1;fillColor=none;align=left;verticalAlign=middle;spacingTop=-1;spacingLeft=3;spacingRight=3;rotatable=0;labelPosition=right;points=[];portConstraint=eastwest;" vertex="1" parent="WDAkb9en_wS_irwKjnbd-132">
          <mxGeometry y="52" width="200" height="8" as="geometry" />
        </mxCell>
        <mxCell id="WDAkb9en_wS_irwKjnbd-135" value="+ method(type): type" style="text;strokeColor=none;fillColor=none;align=left;verticalAlign=top;spacingLeft=4;spacingRight=4;overflow=hidden;rotatable=0;points=[[0,0.5],[1,0.5]];portConstraint=eastwest;" vertex="1" parent="WDAkb9en_wS_irwKjnbd-132">
          <mxGeometry y="60" width="200" height="26" as="geometry" />
        </mxCell>
        <mxCell id="WDAkb9en_wS_irwKjnbd-136" value="BmSimulatedBuildingCell" style="swimlane;fontStyle=1;align=center;verticalAlign=top;childLayout=stackLayout;horizontal=1;startSize=26;horizontalStack=0;resizeParent=1;resizeParentMax=0;resizeLast=0;collapsible=1;marginBottom=0;" vertex="1" collapsed="1" parent="1">
          <mxGeometry x="260" y="140" width="200" height="26" as="geometry">
            <mxRectangle x="270" y="200" width="210" height="86" as="alternateBounds" />
          </mxGeometry>
        </mxCell>
        <mxCell id="WDAkb9en_wS_irwKjnbd-137" value="+ field: type" style="text;strokeColor=none;fillColor=none;align=left;verticalAlign=top;spacingLeft=4;spacingRight=4;overflow=hidden;rotatable=0;points=[[0,0.5],[1,0.5]];portConstraint=eastwest;" vertex="1" parent="WDAkb9en_wS_irwKjnbd-136">
          <mxGeometry y="26" width="200" height="26" as="geometry" />
        </mxCell>
        <mxCell id="WDAkb9en_wS_irwKjnbd-138" value="" style="line;strokeWidth=1;fillColor=none;align=left;verticalAlign=middle;spacingTop=-1;spacingLeft=3;spacingRight=3;rotatable=0;labelPosition=right;points=[];portConstraint=eastwest;" vertex="1" parent="WDAkb9en_wS_irwKjnbd-136">
          <mxGeometry y="52" width="200" height="8" as="geometry" />
        </mxCell>
        <mxCell id="WDAkb9en_wS_irwKjnbd-139" value="+ method(type): type" style="text;strokeColor=none;fillColor=none;align=left;verticalAlign=top;spacingLeft=4;spacingRight=4;overflow=hidden;rotatable=0;points=[[0,0.5],[1,0.5]];portConstraint=eastwest;" vertex="1" parent="WDAkb9en_wS_irwKjnbd-136">
          <mxGeometry y="60" width="200" height="26" as="geometry" />
        </mxCell>
        <mxCell id="WDAkb9en_wS_irwKjnbd-140" value="SimulatedBuildingCellCustomizableParameterBehavior" style="swimlane;fontStyle=1;align=center;verticalAlign=top;childLayout=stackLayout;horizontal=1;startSize=26;horizontalStack=0;resizeParent=1;resizeParentMax=0;resizeLast=0;collapsible=1;marginBottom=0;" vertex="1" collapsed="1" parent="1">
          <mxGeometry x="200" y="254" width="340" height="26" as="geometry">
            <mxRectangle x="270" y="200" width="210" height="86" as="alternateBounds" />
          </mxGeometry>
        </mxCell>
        <mxCell id="WDAkb9en_wS_irwKjnbd-141" value="+ field: type" style="text;strokeColor=none;fillColor=none;align=left;verticalAlign=top;spacingLeft=4;spacingRight=4;overflow=hidden;rotatable=0;points=[[0,0.5],[1,0.5]];portConstraint=eastwest;" vertex="1" parent="WDAkb9en_wS_irwKjnbd-140">
          <mxGeometry y="26" width="340" height="26" as="geometry" />
        </mxCell>
        <mxCell id="WDAkb9en_wS_irwKjnbd-142" value="" style="line;strokeWidth=1;fillColor=none;align=left;verticalAlign=middle;spacingTop=-1;spacingLeft=3;spacingRight=3;rotatable=0;labelPosition=right;points=[];portConstraint=eastwest;" vertex="1" parent="WDAkb9en_wS_irwKjnbd-140">
          <mxGeometry y="52" width="340" height="8" as="geometry" />
        </mxCell>
        <mxCell id="WDAkb9en_wS_irwKjnbd-143" value="+ method(type): type" style="text;strokeColor=none;fillColor=none;align=left;verticalAlign=top;spacingLeft=4;spacingRight=4;overflow=hidden;rotatable=0;points=[[0,0.5],[1,0.5]];portConstraint=eastwest;" vertex="1" parent="WDAkb9en_wS_irwKjnbd-140">
          <mxGeometry y="60" width="340" height="26" as="geometry" />
        </mxCell>
        <mxCell id="WDAkb9en_wS_irwKjnbd-144" value="SimulatedBuildingCombinationCellViewSpecificShapeBehavior" style="swimlane;fontStyle=1;align=center;verticalAlign=top;childLayout=stackLayout;horizontal=1;startSize=26;horizontalStack=0;resizeParent=1;resizeParentMax=0;resizeLast=0;collapsible=1;marginBottom=0;" vertex="1" collapsed="1" parent="1">
          <mxGeometry x="200" y="380" width="380" height="26" as="geometry">
            <mxRectangle x="270" y="200" width="210" height="86" as="alternateBounds" />
          </mxGeometry>
        </mxCell>
        <mxCell id="WDAkb9en_wS_irwKjnbd-145" value="+ field: type" style="text;strokeColor=none;fillColor=none;align=left;verticalAlign=top;spacingLeft=4;spacingRight=4;overflow=hidden;rotatable=0;points=[[0,0.5],[1,0.5]];portConstraint=eastwest;" vertex="1" parent="WDAkb9en_wS_irwKjnbd-144">
          <mxGeometry y="26" width="380" height="26" as="geometry" />
        </mxCell>
        <mxCell id="WDAkb9en_wS_irwKjnbd-146" value="" style="line;strokeWidth=1;fillColor=none;align=left;verticalAlign=middle;spacingTop=-1;spacingLeft=3;spacingRight=3;rotatable=0;labelPosition=right;points=[];portConstraint=eastwest;" vertex="1" parent="WDAkb9en_wS_irwKjnbd-144">
          <mxGeometry y="52" width="380" height="8" as="geometry" />
        </mxCell>
        <mxCell id="WDAkb9en_wS_irwKjnbd-147" value="+ method(type): type" style="text;strokeColor=none;fillColor=none;align=left;verticalAlign=top;spacingLeft=4;spacingRight=4;overflow=hidden;rotatable=0;points=[[0,0.5],[1,0.5]];portConstraint=eastwest;" vertex="1" parent="WDAkb9en_wS_irwKjnbd-144">
          <mxGeometry y="60" width="380" height="26" as="geometry" />
        </mxCell>
        <mxCell id="WDAkb9en_wS_irwKjnbd-148" value="BmSimulatedBuildingCombinationCellCopyStrategyComponent" style="swimlane;fontStyle=1;align=center;verticalAlign=top;childLayout=stackLayout;horizontal=1;startSize=26;horizontalStack=0;resizeParent=1;resizeParentMax=0;resizeLast=0;collapsible=1;marginBottom=0;" vertex="1" collapsed="1" parent="1">
          <mxGeometry x="200" y="577" width="380" height="26" as="geometry">
            <mxRectangle x="270" y="200" width="210" height="86" as="alternateBounds" />
          </mxGeometry>
        </mxCell>
        <mxCell id="WDAkb9en_wS_irwKjnbd-149" value="+ field: type" style="text;strokeColor=none;fillColor=none;align=left;verticalAlign=top;spacingLeft=4;spacingRight=4;overflow=hidden;rotatable=0;points=[[0,0.5],[1,0.5]];portConstraint=eastwest;" vertex="1" parent="WDAkb9en_wS_irwKjnbd-148">
          <mxGeometry y="26" width="380" height="26" as="geometry" />
        </mxCell>
        <mxCell id="WDAkb9en_wS_irwKjnbd-150" value="" style="line;strokeWidth=1;fillColor=none;align=left;verticalAlign=middle;spacingTop=-1;spacingLeft=3;spacingRight=3;rotatable=0;labelPosition=right;points=[];portConstraint=eastwest;" vertex="1" parent="WDAkb9en_wS_irwKjnbd-148">
          <mxGeometry y="52" width="380" height="8" as="geometry" />
        </mxCell>
        <mxCell id="WDAkb9en_wS_irwKjnbd-151" value="+ method(type): type" style="text;strokeColor=none;fillColor=none;align=left;verticalAlign=top;spacingLeft=4;spacingRight=4;overflow=hidden;rotatable=0;points=[[0,0.5],[1,0.5]];portConstraint=eastwest;" vertex="1" parent="WDAkb9en_wS_irwKjnbd-148">
          <mxGeometry y="60" width="380" height="26" as="geometry" />
        </mxCell>
        <mxCell id="WDAkb9en_wS_irwKjnbd-152" value="BmSimulatedBuildingCombinationCellTransformationBehavior" style="swimlane;fontStyle=1;align=center;verticalAlign=top;childLayout=stackLayout;horizontal=1;startSize=26;horizontalStack=0;resizeParent=1;resizeParentMax=0;resizeLast=0;collapsible=1;marginBottom=0;" vertex="1" collapsed="1" parent="1">
          <mxGeometry x="200" y="480" width="390" height="26" as="geometry">
            <mxRectangle x="270" y="200" width="210" height="86" as="alternateBounds" />
          </mxGeometry>
        </mxCell>
        <mxCell id="WDAkb9en_wS_irwKjnbd-153" value="+ field: type" style="text;strokeColor=none;fillColor=none;align=left;verticalAlign=top;spacingLeft=4;spacingRight=4;overflow=hidden;rotatable=0;points=[[0,0.5],[1,0.5]];portConstraint=eastwest;" vertex="1" parent="WDAkb9en_wS_irwKjnbd-152">
          <mxGeometry y="26" width="390" height="26" as="geometry" />
        </mxCell>
        <mxCell id="WDAkb9en_wS_irwKjnbd-154" value="" style="line;strokeWidth=1;fillColor=none;align=left;verticalAlign=middle;spacingTop=-1;spacingLeft=3;spacingRight=3;rotatable=0;labelPosition=right;points=[];portConstraint=eastwest;" vertex="1" parent="WDAkb9en_wS_irwKjnbd-152">
          <mxGeometry y="52" width="390" height="8" as="geometry" />
        </mxCell>
        <mxCell id="WDAkb9en_wS_irwKjnbd-155" value="+ method(type): type" style="text;strokeColor=none;fillColor=none;align=left;verticalAlign=top;spacingLeft=4;spacingRight=4;overflow=hidden;rotatable=0;points=[[0,0.5],[1,0.5]];portConstraint=eastwest;" vertex="1" parent="WDAkb9en_wS_irwKjnbd-152">
          <mxGeometry y="60" width="390" height="26" as="geometry" />
        </mxCell>
        <mxCell id="WDAkb9en_wS_irwKjnbd-156" value="BmSimulatedBuildingDocumentUpgrader" style="swimlane;fontStyle=1;align=center;verticalAlign=top;childLayout=stackLayout;horizontal=1;startSize=26;horizontalStack=0;resizeParent=1;resizeParentMax=0;resizeLast=0;collapsible=1;marginBottom=0;fillColor=#fff2cc;strokeColor=#d6b656;" vertex="1" collapsed="1" parent="1">
          <mxGeometry x="1150" y="420" width="270" height="26" as="geometry">
            <mxRectangle x="270" y="200" width="210" height="86" as="alternateBounds" />
          </mxGeometry>
        </mxCell>
        <mxCell id="WDAkb9en_wS_irwKjnbd-157" value="+ field: type" style="text;strokeColor=none;fillColor=none;align=left;verticalAlign=top;spacingLeft=4;spacingRight=4;overflow=hidden;rotatable=0;points=[[0,0.5],[1,0.5]];portConstraint=eastwest;" vertex="1" parent="WDAkb9en_wS_irwKjnbd-156">
          <mxGeometry y="26" width="270" height="26" as="geometry" />
        </mxCell>
        <mxCell id="WDAkb9en_wS_irwKjnbd-158" value="" style="line;strokeWidth=1;fillColor=none;align=left;verticalAlign=middle;spacingTop=-1;spacingLeft=3;spacingRight=3;rotatable=0;labelPosition=right;points=[];portConstraint=eastwest;" vertex="1" parent="WDAkb9en_wS_irwKjnbd-156">
          <mxGeometry y="52" width="270" height="8" as="geometry" />
        </mxCell>
        <mxCell id="WDAkb9en_wS_irwKjnbd-159" value="+ method(type): type" style="text;strokeColor=none;fillColor=none;align=left;verticalAlign=top;spacingLeft=4;spacingRight=4;overflow=hidden;rotatable=0;points=[[0,0.5],[1,0.5]];portConstraint=eastwest;" vertex="1" parent="WDAkb9en_wS_irwKjnbd-156">
          <mxGeometry y="60" width="270" height="26" as="geometry" />
        </mxCell>
        <mxCell id="WDAkb9en_wS_irwKjnbd-160" value="BmSimulatedBuildingEditModeBehavior" style="swimlane;fontStyle=1;align=center;verticalAlign=top;childLayout=stackLayout;horizontal=1;startSize=26;horizontalStack=0;resizeParent=1;resizeParentMax=0;resizeLast=0;collapsible=1;marginBottom=0;" vertex="1" collapsed="1" parent="1">
          <mxGeometry x="304" y="1010" width="326" height="26" as="geometry">
            <mxRectangle x="270" y="200" width="210" height="86" as="alternateBounds" />
          </mxGeometry>
        </mxCell>
        <mxCell id="WDAkb9en_wS_irwKjnbd-161" value="+ field: type" style="text;strokeColor=none;fillColor=none;align=left;verticalAlign=top;spacingLeft=4;spacingRight=4;overflow=hidden;rotatable=0;points=[[0,0.5],[1,0.5]];portConstraint=eastwest;" vertex="1" parent="WDAkb9en_wS_irwKjnbd-160">
          <mxGeometry y="26" width="326" height="26" as="geometry" />
        </mxCell>
        <mxCell id="WDAkb9en_wS_irwKjnbd-162" value="" style="line;strokeWidth=1;fillColor=none;align=left;verticalAlign=middle;spacingTop=-1;spacingLeft=3;spacingRight=3;rotatable=0;labelPosition=right;points=[];portConstraint=eastwest;" vertex="1" parent="WDAkb9en_wS_irwKjnbd-160">
          <mxGeometry y="52" width="326" height="8" as="geometry" />
        </mxCell>
        <mxCell id="WDAkb9en_wS_irwKjnbd-163" value="+ method(type): type" style="text;strokeColor=none;fillColor=none;align=left;verticalAlign=top;spacingLeft=4;spacingRight=4;overflow=hidden;rotatable=0;points=[[0,0.5],[1,0.5]];portConstraint=eastwest;" vertex="1" parent="WDAkb9en_wS_irwKjnbd-160">
          <mxGeometry y="60" width="326" height="26" as="geometry" />
        </mxCell>
        <mxCell id="WDAkb9en_wS_irwKjnbd-164" value="IParameterValueList" style="swimlane;fontStyle=1;align=center;verticalAlign=top;childLayout=stackLayout;horizontal=1;startSize=26;horizontalStack=0;resizeParent=1;resizeParentMax=0;resizeLast=0;collapsible=1;marginBottom=0;" vertex="1" collapsed="1" parent="1">
          <mxGeometry x="1230" y="910" width="270" height="26" as="geometry">
            <mxRectangle x="270" y="200" width="210" height="86" as="alternateBounds" />
          </mxGeometry>
        </mxCell>
        <mxCell id="WDAkb9en_wS_irwKjnbd-165" value="+ field: type" style="text;strokeColor=none;fillColor=none;align=left;verticalAlign=top;spacingLeft=4;spacingRight=4;overflow=hidden;rotatable=0;points=[[0,0.5],[1,0.5]];portConstraint=eastwest;" vertex="1" parent="WDAkb9en_wS_irwKjnbd-164">
          <mxGeometry y="26" width="270" height="26" as="geometry" />
        </mxCell>
        <mxCell id="WDAkb9en_wS_irwKjnbd-166" value="" style="line;strokeWidth=1;fillColor=none;align=left;verticalAlign=middle;spacingTop=-1;spacingLeft=3;spacingRight=3;rotatable=0;labelPosition=right;points=[];portConstraint=eastwest;" vertex="1" parent="WDAkb9en_wS_irwKjnbd-164">
          <mxGeometry y="52" width="270" height="8" as="geometry" />
        </mxCell>
        <mxCell id="WDAkb9en_wS_irwKjnbd-167" value="+ method(type): type" style="text;strokeColor=none;fillColor=none;align=left;verticalAlign=top;spacingLeft=4;spacingRight=4;overflow=hidden;rotatable=0;points=[[0,0.5],[1,0.5]];portConstraint=eastwest;" vertex="1" parent="WDAkb9en_wS_irwKjnbd-164">
          <mxGeometry y="60" width="270" height="26" as="geometry" />
        </mxCell>
        <mxCell id="WDAkb9en_wS_irwKjnbd-169" value="BmSimulatedBuildingLevelParameterValueList" style="swimlane;fontStyle=1;align=center;verticalAlign=top;childLayout=stackLayout;horizontal=1;startSize=26;horizontalStack=0;resizeParent=1;resizeParentMax=0;resizeLast=0;collapsible=1;marginBottom=0;" vertex="1" collapsed="1" parent="1">
          <mxGeometry x="1210" y="976" width="310" height="26" as="geometry">
            <mxRectangle x="270" y="200" width="210" height="86" as="alternateBounds" />
          </mxGeometry>
        </mxCell>
        <mxCell id="WDAkb9en_wS_irwKjnbd-170" value="+ field: type" style="text;strokeColor=none;fillColor=none;align=left;verticalAlign=top;spacingLeft=4;spacingRight=4;overflow=hidden;rotatable=0;points=[[0,0.5],[1,0.5]];portConstraint=eastwest;" vertex="1" parent="WDAkb9en_wS_irwKjnbd-169">
          <mxGeometry y="26" width="310" height="26" as="geometry" />
        </mxCell>
        <mxCell id="WDAkb9en_wS_irwKjnbd-171" value="" style="line;strokeWidth=1;fillColor=none;align=left;verticalAlign=middle;spacingTop=-1;spacingLeft=3;spacingRight=3;rotatable=0;labelPosition=right;points=[];portConstraint=eastwest;" vertex="1" parent="WDAkb9en_wS_irwKjnbd-169">
          <mxGeometry y="52" width="310" height="8" as="geometry" />
        </mxCell>
        <mxCell id="WDAkb9en_wS_irwKjnbd-172" value="+ method(type): type" style="text;strokeColor=none;fillColor=none;align=left;verticalAlign=top;spacingLeft=4;spacingRight=4;overflow=hidden;rotatable=0;points=[[0,0.5],[1,0.5]];portConstraint=eastwest;" vertex="1" parent="WDAkb9en_wS_irwKjnbd-169">
          <mxGeometry y="60" width="310" height="26" as="geometry" />
        </mxCell>
        <mxCell id="WDAkb9en_wS_irwKjnbd-173" value="BmSimulatedBuildingMapSettingDlg" style="swimlane;fontStyle=1;align=center;verticalAlign=top;childLayout=stackLayout;horizontal=1;startSize=26;horizontalStack=0;resizeParent=1;resizeParentMax=0;resizeLast=0;collapsible=1;marginBottom=0;" vertex="1" collapsed="1" parent="1">
          <mxGeometry x="1150" y="460" width="270" height="26" as="geometry">
            <mxRectangle x="270" y="200" width="210" height="86" as="alternateBounds" />
          </mxGeometry>
        </mxCell>
        <mxCell id="WDAkb9en_wS_irwKjnbd-174" value="+ field: type" style="text;strokeColor=none;fillColor=none;align=left;verticalAlign=top;spacingLeft=4;spacingRight=4;overflow=hidden;rotatable=0;points=[[0,0.5],[1,0.5]];portConstraint=eastwest;" vertex="1" parent="WDAkb9en_wS_irwKjnbd-173">
          <mxGeometry y="26" width="270" height="26" as="geometry" />
        </mxCell>
        <mxCell id="WDAkb9en_wS_irwKjnbd-175" value="" style="line;strokeWidth=1;fillColor=none;align=left;verticalAlign=middle;spacingTop=-1;spacingLeft=3;spacingRight=3;rotatable=0;labelPosition=right;points=[];portConstraint=eastwest;" vertex="1" parent="WDAkb9en_wS_irwKjnbd-173">
          <mxGeometry y="52" width="270" height="8" as="geometry" />
        </mxCell>
        <mxCell id="WDAkb9en_wS_irwKjnbd-176" value="+ method(type): type" style="text;strokeColor=none;fillColor=none;align=left;verticalAlign=top;spacingLeft=4;spacingRight=4;overflow=hidden;rotatable=0;points=[[0,0.5],[1,0.5]];portConstraint=eastwest;" vertex="1" parent="WDAkb9en_wS_irwKjnbd-173">
          <mxGeometry y="60" width="270" height="26" as="geometry" />
        </mxCell>
        <mxCell id="WDAkb9en_wS_irwKjnbd-177" value="BmSimulatedBuildingSetting" style="swimlane;fontStyle=1;align=center;verticalAlign=top;childLayout=stackLayout;horizontal=1;startSize=26;horizontalStack=0;resizeParent=1;resizeParentMax=0;resizeLast=0;collapsible=1;marginBottom=0;" vertex="1" collapsed="1" parent="1">
          <mxGeometry x="1260" y="603" width="270" height="26" as="geometry">
            <mxRectangle x="270" y="200" width="210" height="86" as="alternateBounds" />
          </mxGeometry>
        </mxCell>
        <mxCell id="WDAkb9en_wS_irwKjnbd-178" value="+ field: type" style="text;strokeColor=none;fillColor=none;align=left;verticalAlign=top;spacingLeft=4;spacingRight=4;overflow=hidden;rotatable=0;points=[[0,0.5],[1,0.5]];portConstraint=eastwest;" vertex="1" parent="WDAkb9en_wS_irwKjnbd-177">
          <mxGeometry y="26" width="270" height="26" as="geometry" />
        </mxCell>
        <mxCell id="WDAkb9en_wS_irwKjnbd-179" value="" style="line;strokeWidth=1;fillColor=none;align=left;verticalAlign=middle;spacingTop=-1;spacingLeft=3;spacingRight=3;rotatable=0;labelPosition=right;points=[];portConstraint=eastwest;" vertex="1" parent="WDAkb9en_wS_irwKjnbd-177">
          <mxGeometry y="52" width="270" height="8" as="geometry" />
        </mxCell>
        <mxCell id="WDAkb9en_wS_irwKjnbd-180" value="+ method(type): type" style="text;strokeColor=none;fillColor=none;align=left;verticalAlign=top;spacingLeft=4;spacingRight=4;overflow=hidden;rotatable=0;points=[[0,0.5],[1,0.5]];portConstraint=eastwest;" vertex="1" parent="WDAkb9en_wS_irwKjnbd-177">
          <mxGeometry y="60" width="270" height="26" as="geometry" />
        </mxCell>
        <mxCell id="WDAkb9en_wS_irwKjnbd-181" value="BmSimulatedBuildingSettingManager" style="swimlane;fontStyle=1;align=center;verticalAlign=top;childLayout=stackLayout;horizontal=1;startSize=26;horizontalStack=0;resizeParent=1;resizeParentMax=0;resizeLast=0;collapsible=1;marginBottom=0;" vertex="1" collapsed="1" parent="1">
          <mxGeometry x="960" y="603" width="270" height="26" as="geometry">
            <mxRectangle x="270" y="200" width="210" height="86" as="alternateBounds" />
          </mxGeometry>
        </mxCell>
        <mxCell id="WDAkb9en_wS_irwKjnbd-182" value="+ field: type" style="text;strokeColor=none;fillColor=none;align=left;verticalAlign=top;spacingLeft=4;spacingRight=4;overflow=hidden;rotatable=0;points=[[0,0.5],[1,0.5]];portConstraint=eastwest;" vertex="1" parent="WDAkb9en_wS_irwKjnbd-181">
          <mxGeometry y="26" width="270" height="26" as="geometry" />
        </mxCell>
        <mxCell id="WDAkb9en_wS_irwKjnbd-183" value="" style="line;strokeWidth=1;fillColor=none;align=left;verticalAlign=middle;spacingTop=-1;spacingLeft=3;spacingRight=3;rotatable=0;labelPosition=right;points=[];portConstraint=eastwest;" vertex="1" parent="WDAkb9en_wS_irwKjnbd-181">
          <mxGeometry y="52" width="270" height="8" as="geometry" />
        </mxCell>
        <mxCell id="WDAkb9en_wS_irwKjnbd-184" value="+ method(type): type" style="text;strokeColor=none;fillColor=none;align=left;verticalAlign=top;spacingLeft=4;spacingRight=4;overflow=hidden;rotatable=0;points=[[0,0.5],[1,0.5]];portConstraint=eastwest;" vertex="1" parent="WDAkb9en_wS_irwKjnbd-181">
          <mxGeometry y="60" width="270" height="26" as="geometry" />
        </mxCell>
        <mxCell id="WDAkb9en_wS_irwKjnbd-185" value="BmSimulatedBuildingUtils" style="swimlane;fontStyle=1;align=center;verticalAlign=top;childLayout=stackLayout;horizontal=1;startSize=26;horizontalStack=0;resizeParent=1;resizeParentMax=0;resizeLast=0;collapsible=1;marginBottom=0;" vertex="1" collapsed="1" parent="1">
          <mxGeometry x="1150" y="380" width="270" height="26" as="geometry">
            <mxRectangle x="270" y="200" width="210" height="86" as="alternateBounds" />
          </mxGeometry>
        </mxCell>
        <mxCell id="WDAkb9en_wS_irwKjnbd-186" value="+ field: type" style="text;strokeColor=none;fillColor=none;align=left;verticalAlign=top;spacingLeft=4;spacingRight=4;overflow=hidden;rotatable=0;points=[[0,0.5],[1,0.5]];portConstraint=eastwest;" vertex="1" parent="WDAkb9en_wS_irwKjnbd-185">
          <mxGeometry y="26" width="270" height="26" as="geometry" />
        </mxCell>
        <mxCell id="WDAkb9en_wS_irwKjnbd-187" value="" style="line;strokeWidth=1;fillColor=none;align=left;verticalAlign=middle;spacingTop=-1;spacingLeft=3;spacingRight=3;rotatable=0;labelPosition=right;points=[];portConstraint=eastwest;" vertex="1" parent="WDAkb9en_wS_irwKjnbd-185">
          <mxGeometry y="52" width="270" height="8" as="geometry" />
        </mxCell>
        <mxCell id="WDAkb9en_wS_irwKjnbd-188" value="+ method(type): type" style="text;strokeColor=none;fillColor=none;align=left;verticalAlign=top;spacingLeft=4;spacingRight=4;overflow=hidden;rotatable=0;points=[[0,0.5],[1,0.5]];portConstraint=eastwest;" vertex="1" parent="WDAkb9en_wS_irwKjnbd-185">
          <mxGeometry y="60" width="270" height="26" as="geometry" />
        </mxCell>
        <mxCell id="WDAkb9en_wS_irwKjnbd-189" value="BmUISimulatedBuildingCellProfileEditModeBehavior" style="swimlane;fontStyle=1;align=center;verticalAlign=top;childLayout=stackLayout;horizontal=1;startSize=26;horizontalStack=0;resizeParent=1;resizeParentMax=0;resizeLast=0;collapsible=1;marginBottom=0;" vertex="1" collapsed="1" parent="1">
          <mxGeometry x="304" y="1070" width="326" height="26" as="geometry">
            <mxRectangle x="270" y="200" width="210" height="86" as="alternateBounds" />
          </mxGeometry>
        </mxCell>
        <mxCell id="WDAkb9en_wS_irwKjnbd-190" value="+ field: type" style="text;strokeColor=none;fillColor=none;align=left;verticalAlign=top;spacingLeft=4;spacingRight=4;overflow=hidden;rotatable=0;points=[[0,0.5],[1,0.5]];portConstraint=eastwest;" vertex="1" parent="WDAkb9en_wS_irwKjnbd-189">
          <mxGeometry y="26" width="326" height="26" as="geometry" />
        </mxCell>
        <mxCell id="WDAkb9en_wS_irwKjnbd-191" value="" style="line;strokeWidth=1;fillColor=none;align=left;verticalAlign=middle;spacingTop=-1;spacingLeft=3;spacingRight=3;rotatable=0;labelPosition=right;points=[];portConstraint=eastwest;" vertex="1" parent="WDAkb9en_wS_irwKjnbd-189">
          <mxGeometry y="52" width="326" height="8" as="geometry" />
        </mxCell>
        <mxCell id="WDAkb9en_wS_irwKjnbd-192" value="+ method(type): type" style="text;strokeColor=none;fillColor=none;align=left;verticalAlign=top;spacingLeft=4;spacingRight=4;overflow=hidden;rotatable=0;points=[[0,0.5],[1,0.5]];portConstraint=eastwest;" vertex="1" parent="WDAkb9en_wS_irwKjnbd-189">
          <mxGeometry y="60" width="326" height="26" as="geometry" />
        </mxCell>
        <mxCell id="WDAkb9en_wS_irwKjnbd-193" value="INotificationCenterEventHandler" style="swimlane;fontStyle=1;align=center;verticalAlign=top;childLayout=stackLayout;horizontal=1;startSize=26;horizontalStack=0;resizeParent=1;resizeParentMax=0;resizeLast=0;collapsible=1;marginBottom=0;" vertex="1" collapsed="1" parent="1">
          <mxGeometry x="320" y="900" width="270" height="26" as="geometry">
            <mxRectangle x="270" y="200" width="210" height="86" as="alternateBounds" />
          </mxGeometry>
        </mxCell>
        <mxCell id="WDAkb9en_wS_irwKjnbd-194" value="+ field: type" style="text;strokeColor=none;fillColor=none;align=left;verticalAlign=top;spacingLeft=4;spacingRight=4;overflow=hidden;rotatable=0;points=[[0,0.5],[1,0.5]];portConstraint=eastwest;" vertex="1" parent="WDAkb9en_wS_irwKjnbd-193">
          <mxGeometry y="26" width="270" height="26" as="geometry" />
        </mxCell>
        <mxCell id="WDAkb9en_wS_irwKjnbd-195" value="" style="line;strokeWidth=1;fillColor=none;align=left;verticalAlign=middle;spacingTop=-1;spacingLeft=3;spacingRight=3;rotatable=0;labelPosition=right;points=[];portConstraint=eastwest;" vertex="1" parent="WDAkb9en_wS_irwKjnbd-193">
          <mxGeometry y="52" width="270" height="8" as="geometry" />
        </mxCell>
        <mxCell id="WDAkb9en_wS_irwKjnbd-196" value="+ method(type): type" style="text;strokeColor=none;fillColor=none;align=left;verticalAlign=top;spacingLeft=4;spacingRight=4;overflow=hidden;rotatable=0;points=[[0,0.5],[1,0.5]];portConstraint=eastwest;" vertex="1" parent="WDAkb9en_wS_irwKjnbd-193">
          <mxGeometry y="60" width="270" height="26" as="geometry" />
        </mxCell>
        <mxCell id="WDAkb9en_wS_irwKjnbd-197" value="IUiEditModeBehavior" style="swimlane;fontStyle=1;align=center;verticalAlign=top;childLayout=stackLayout;horizontal=1;startSize=26;horizontalStack=0;resizeParent=1;resizeParentMax=0;resizeLast=0;collapsible=1;marginBottom=0;" vertex="1" collapsed="1" parent="1">
          <mxGeometry x="736" y="954" width="270" height="26" as="geometry">
            <mxRectangle x="270" y="200" width="210" height="86" as="alternateBounds" />
          </mxGeometry>
        </mxCell>
        <mxCell id="WDAkb9en_wS_irwKjnbd-198" value="+ field: type" style="text;strokeColor=none;fillColor=none;align=left;verticalAlign=top;spacingLeft=4;spacingRight=4;overflow=hidden;rotatable=0;points=[[0,0.5],[1,0.5]];portConstraint=eastwest;" vertex="1" parent="WDAkb9en_wS_irwKjnbd-197">
          <mxGeometry y="26" width="270" height="26" as="geometry" />
        </mxCell>
        <mxCell id="WDAkb9en_wS_irwKjnbd-199" value="" style="line;strokeWidth=1;fillColor=none;align=left;verticalAlign=middle;spacingTop=-1;spacingLeft=3;spacingRight=3;rotatable=0;labelPosition=right;points=[];portConstraint=eastwest;" vertex="1" parent="WDAkb9en_wS_irwKjnbd-197">
          <mxGeometry y="52" width="270" height="8" as="geometry" />
        </mxCell>
        <mxCell id="WDAkb9en_wS_irwKjnbd-200" value="+ method(type): type" style="text;strokeColor=none;fillColor=none;align=left;verticalAlign=top;spacingLeft=4;spacingRight=4;overflow=hidden;rotatable=0;points=[[0,0.5],[1,0.5]];portConstraint=eastwest;" vertex="1" parent="WDAkb9en_wS_irwKjnbd-197">
          <mxGeometry y="60" width="270" height="26" as="geometry" />
        </mxCell>
        <mxCell id="WDAkb9en_wS_irwKjnbd-201" value="BmUISimulatedBuildingEditModeBehavior" style="swimlane;fontStyle=1;align=center;verticalAlign=top;childLayout=stackLayout;horizontal=1;startSize=26;horizontalStack=0;resizeParent=1;resizeParentMax=0;resizeLast=0;collapsible=1;marginBottom=0;" vertex="1" collapsed="1" parent="1">
          <mxGeometry x="710" y="1014" width="326" height="26" as="geometry">
            <mxRectangle x="270" y="200" width="210" height="86" as="alternateBounds" />
          </mxGeometry>
        </mxCell>
        <mxCell id="WDAkb9en_wS_irwKjnbd-202" value="+ field: type" style="text;strokeColor=none;fillColor=none;align=left;verticalAlign=top;spacingLeft=4;spacingRight=4;overflow=hidden;rotatable=0;points=[[0,0.5],[1,0.5]];portConstraint=eastwest;" vertex="1" parent="WDAkb9en_wS_irwKjnbd-201">
          <mxGeometry y="26" width="326" height="26" as="geometry" />
        </mxCell>
        <mxCell id="WDAkb9en_wS_irwKjnbd-203" value="" style="line;strokeWidth=1;fillColor=none;align=left;verticalAlign=middle;spacingTop=-1;spacingLeft=3;spacingRight=3;rotatable=0;labelPosition=right;points=[];portConstraint=eastwest;" vertex="1" parent="WDAkb9en_wS_irwKjnbd-201">
          <mxGeometry y="52" width="326" height="8" as="geometry" />
        </mxCell>
        <mxCell id="WDAkb9en_wS_irwKjnbd-204" value="+ method(type): type" style="text;strokeColor=none;fillColor=none;align=left;verticalAlign=top;spacingLeft=4;spacingRight=4;overflow=hidden;rotatable=0;points=[[0,0.5],[1,0.5]];portConstraint=eastwest;" vertex="1" parent="WDAkb9en_wS_irwKjnbd-201">
          <mxGeometry y="60" width="326" height="26" as="geometry" />
        </mxCell>
        <mxCell id="WDAkb9en_wS_irwKjnbd-205" value="DummySimulatedBuildingHeightInput" style="swimlane;fontStyle=1;align=center;verticalAlign=top;childLayout=stackLayout;horizontal=1;startSize=26;horizontalStack=0;resizeParent=1;resizeParentMax=0;resizeLast=0;collapsible=1;marginBottom=0;" vertex="1" collapsed="1" parent="1">
          <mxGeometry x="1036" y="140" width="290" height="26" as="geometry">
            <mxRectangle x="270" y="200" width="210" height="86" as="alternateBounds" />
          </mxGeometry>
        </mxCell>
        <mxCell id="WDAkb9en_wS_irwKjnbd-206" value="+ field: type" style="text;strokeColor=none;fillColor=none;align=left;verticalAlign=top;spacingLeft=4;spacingRight=4;overflow=hidden;rotatable=0;points=[[0,0.5],[1,0.5]];portConstraint=eastwest;" vertex="1" parent="WDAkb9en_wS_irwKjnbd-205">
          <mxGeometry y="26" width="290" height="26" as="geometry" />
        </mxCell>
        <mxCell id="WDAkb9en_wS_irwKjnbd-207" value="" style="line;strokeWidth=1;fillColor=none;align=left;verticalAlign=middle;spacingTop=-1;spacingLeft=3;spacingRight=3;rotatable=0;labelPosition=right;points=[];portConstraint=eastwest;" vertex="1" parent="WDAkb9en_wS_irwKjnbd-205">
          <mxGeometry y="52" width="290" height="8" as="geometry" />
        </mxCell>
        <mxCell id="WDAkb9en_wS_irwKjnbd-208" value="+ method(type): type" style="text;strokeColor=none;fillColor=none;align=left;verticalAlign=top;spacingLeft=4;spacingRight=4;overflow=hidden;rotatable=0;points=[[0,0.5],[1,0.5]];portConstraint=eastwest;" vertex="1" parent="WDAkb9en_wS_irwKjnbd-205">
          <mxGeometry y="60" width="290" height="26" as="geometry" />
        </mxCell>
        <mxCell id="WDAkb9en_wS_irwKjnbd-209" value="IBmSimulatedBuildingCombinationCell" style="swimlane;fontStyle=1;align=center;verticalAlign=top;childLayout=stackLayout;horizontal=1;startSize=26;horizontalStack=0;resizeParent=1;resizeParentMax=0;resizeLast=0;collapsible=1;marginBottom=0;" vertex="1" collapsed="1" parent="1">
          <mxGeometry x="570" y="90" width="260" height="26" as="geometry">
            <mxRectangle x="270" y="200" width="210" height="86" as="alternateBounds" />
          </mxGeometry>
        </mxCell>
        <mxCell id="WDAkb9en_wS_irwKjnbd-210" value="+ field: type" style="text;strokeColor=none;fillColor=none;align=left;verticalAlign=top;spacingLeft=4;spacingRight=4;overflow=hidden;rotatable=0;points=[[0,0.5],[1,0.5]];portConstraint=eastwest;" vertex="1" parent="WDAkb9en_wS_irwKjnbd-209">
          <mxGeometry y="26" width="260" height="26" as="geometry" />
        </mxCell>
        <mxCell id="WDAkb9en_wS_irwKjnbd-211" value="" style="line;strokeWidth=1;fillColor=none;align=left;verticalAlign=middle;spacingTop=-1;spacingLeft=3;spacingRight=3;rotatable=0;labelPosition=right;points=[];portConstraint=eastwest;" vertex="1" parent="WDAkb9en_wS_irwKjnbd-209">
          <mxGeometry y="52" width="260" height="8" as="geometry" />
        </mxCell>
        <mxCell id="WDAkb9en_wS_irwKjnbd-212" value="+ method(type): type" style="text;strokeColor=none;fillColor=none;align=left;verticalAlign=top;spacingLeft=4;spacingRight=4;overflow=hidden;rotatable=0;points=[[0,0.5],[1,0.5]];portConstraint=eastwest;" vertex="1" parent="WDAkb9en_wS_irwKjnbd-209">
          <mxGeometry y="60" width="260" height="26" as="geometry" />
        </mxCell>
        <mxCell id="WDAkb9en_wS_irwKjnbd-213" value="BmSimulatedBuildingCombinationCell" style="swimlane;fontStyle=1;align=center;verticalAlign=top;childLayout=stackLayout;horizontal=1;startSize=26;horizontalStack=0;resizeParent=1;resizeParentMax=0;resizeLast=0;collapsible=1;marginBottom=0;" vertex="1" collapsed="1" parent="1">
          <mxGeometry x="570" y="140" width="260" height="26" as="geometry">
            <mxRectangle x="270" y="200" width="210" height="86" as="alternateBounds" />
          </mxGeometry>
        </mxCell>
        <mxCell id="WDAkb9en_wS_irwKjnbd-214" value="+ field: type" style="text;strokeColor=none;fillColor=none;align=left;verticalAlign=top;spacingLeft=4;spacingRight=4;overflow=hidden;rotatable=0;points=[[0,0.5],[1,0.5]];portConstraint=eastwest;" vertex="1" parent="WDAkb9en_wS_irwKjnbd-213">
          <mxGeometry y="26" width="260" height="26" as="geometry" />
        </mxCell>
        <mxCell id="WDAkb9en_wS_irwKjnbd-215" value="" style="line;strokeWidth=1;fillColor=none;align=left;verticalAlign=middle;spacingTop=-1;spacingLeft=3;spacingRight=3;rotatable=0;labelPosition=right;points=[];portConstraint=eastwest;" vertex="1" parent="WDAkb9en_wS_irwKjnbd-213">
          <mxGeometry y="52" width="260" height="8" as="geometry" />
        </mxCell>
        <mxCell id="WDAkb9en_wS_irwKjnbd-216" value="+ method(type): type" style="text;strokeColor=none;fillColor=none;align=left;verticalAlign=top;spacingLeft=4;spacingRight=4;overflow=hidden;rotatable=0;points=[[0,0.5],[1,0.5]];portConstraint=eastwest;" vertex="1" parent="WDAkb9en_wS_irwKjnbd-213">
          <mxGeometry y="60" width="260" height="26" as="geometry" />
        </mxCell>
        <mxCell id="WDAkb9en_wS_irwKjnbd-217" value="BmCreateSimulatedBuildingCmd" style="swimlane;fontStyle=1;align=center;verticalAlign=top;childLayout=stackLayout;horizontal=1;startSize=26;horizontalStack=0;resizeParent=1;resizeParentMax=0;resizeLast=0;collapsible=1;marginBottom=0;" vertex="1" collapsed="1" parent="1">
          <mxGeometry x="-150" y="1300" width="320" height="26" as="geometry">
            <mxRectangle x="270" y="200" width="210" height="86" as="alternateBounds" />
          </mxGeometry>
        </mxCell>
        <mxCell id="WDAkb9en_wS_irwKjnbd-218" value="+ field: type" style="text;strokeColor=none;fillColor=none;align=left;verticalAlign=top;spacingLeft=4;spacingRight=4;overflow=hidden;rotatable=0;points=[[0,0.5],[1,0.5]];portConstraint=eastwest;" vertex="1" parent="WDAkb9en_wS_irwKjnbd-217">
          <mxGeometry y="26" width="320" height="26" as="geometry" />
        </mxCell>
        <mxCell id="WDAkb9en_wS_irwKjnbd-219" value="" style="line;strokeWidth=1;fillColor=none;align=left;verticalAlign=middle;spacingTop=-1;spacingLeft=3;spacingRight=3;rotatable=0;labelPosition=right;points=[];portConstraint=eastwest;" vertex="1" parent="WDAkb9en_wS_irwKjnbd-217">
          <mxGeometry y="52" width="320" height="8" as="geometry" />
        </mxCell>
        <mxCell id="WDAkb9en_wS_irwKjnbd-220" value="+ method(type): type" style="text;strokeColor=none;fillColor=none;align=left;verticalAlign=top;spacingLeft=4;spacingRight=4;overflow=hidden;rotatable=0;points=[[0,0.5],[1,0.5]];portConstraint=eastwest;" vertex="1" parent="WDAkb9en_wS_irwKjnbd-217">
          <mxGeometry y="60" width="320" height="26" as="geometry" />
        </mxCell>
        <mxCell id="WDAkb9en_wS_irwKjnbd-221" value="BmEditSimulatedBuildingCmd" style="swimlane;fontStyle=1;align=center;verticalAlign=top;childLayout=stackLayout;horizontal=1;startSize=26;horizontalStack=0;resizeParent=1;resizeParentMax=0;resizeLast=0;collapsible=1;marginBottom=0;" vertex="1" collapsed="1" parent="1">
          <mxGeometry x="-150" y="1350" width="320" height="26" as="geometry">
            <mxRectangle x="270" y="200" width="210" height="86" as="alternateBounds" />
          </mxGeometry>
        </mxCell>
        <mxCell id="WDAkb9en_wS_irwKjnbd-222" value="+ field: type" style="text;strokeColor=none;fillColor=none;align=left;verticalAlign=top;spacingLeft=4;spacingRight=4;overflow=hidden;rotatable=0;points=[[0,0.5],[1,0.5]];portConstraint=eastwest;" vertex="1" parent="WDAkb9en_wS_irwKjnbd-221">
          <mxGeometry y="26" width="320" height="26" as="geometry" />
        </mxCell>
        <mxCell id="WDAkb9en_wS_irwKjnbd-223" value="" style="line;strokeWidth=1;fillColor=none;align=left;verticalAlign=middle;spacingTop=-1;spacingLeft=3;spacingRight=3;rotatable=0;labelPosition=right;points=[];portConstraint=eastwest;" vertex="1" parent="WDAkb9en_wS_irwKjnbd-221">
          <mxGeometry y="52" width="320" height="8" as="geometry" />
        </mxCell>
        <mxCell id="WDAkb9en_wS_irwKjnbd-224" value="+ method(type): type" style="text;strokeColor=none;fillColor=none;align=left;verticalAlign=top;spacingLeft=4;spacingRight=4;overflow=hidden;rotatable=0;points=[[0,0.5],[1,0.5]];portConstraint=eastwest;" vertex="1" parent="WDAkb9en_wS_irwKjnbd-221">
          <mxGeometry y="60" width="320" height="26" as="geometry" />
        </mxCell>
        <mxCell id="WDAkb9en_wS_irwKjnbd-225" value="BmCreateSimulatedBuildingCellCmd" style="swimlane;fontStyle=1;align=center;verticalAlign=top;childLayout=stackLayout;horizontal=1;startSize=26;horizontalStack=0;resizeParent=1;resizeParentMax=0;resizeLast=0;collapsible=1;marginBottom=0;" vertex="1" collapsed="1" parent="1">
          <mxGeometry x="-150" y="1410" width="320" height="26" as="geometry">
            <mxRectangle x="270" y="200" width="210" height="86" as="alternateBounds" />
          </mxGeometry>
        </mxCell>
        <mxCell id="WDAkb9en_wS_irwKjnbd-226" value="+ field: type" style="text;strokeColor=none;fillColor=none;align=left;verticalAlign=top;spacingLeft=4;spacingRight=4;overflow=hidden;rotatable=0;points=[[0,0.5],[1,0.5]];portConstraint=eastwest;" vertex="1" parent="WDAkb9en_wS_irwKjnbd-225">
          <mxGeometry y="26" width="320" height="26" as="geometry" />
        </mxCell>
        <mxCell id="WDAkb9en_wS_irwKjnbd-227" value="" style="line;strokeWidth=1;fillColor=none;align=left;verticalAlign=middle;spacingTop=-1;spacingLeft=3;spacingRight=3;rotatable=0;labelPosition=right;points=[];portConstraint=eastwest;" vertex="1" parent="WDAkb9en_wS_irwKjnbd-225">
          <mxGeometry y="52" width="320" height="8" as="geometry" />
        </mxCell>
        <mxCell id="WDAkb9en_wS_irwKjnbd-228" value="+ method(type): type" style="text;strokeColor=none;fillColor=none;align=left;verticalAlign=top;spacingLeft=4;spacingRight=4;overflow=hidden;rotatable=0;points=[[0,0.5],[1,0.5]];portConstraint=eastwest;" vertex="1" parent="WDAkb9en_wS_irwKjnbd-225">
          <mxGeometry y="60" width="320" height="26" as="geometry" />
        </mxCell>
        <mxCell id="WDAkb9en_wS_irwKjnbd-229" value="BmUpdateCreateSimulatedBuildingCellContextCmd" style="swimlane;fontStyle=1;align=center;verticalAlign=top;childLayout=stackLayout;horizontal=1;startSize=26;horizontalStack=0;resizeParent=1;resizeParentMax=0;resizeLast=0;collapsible=1;marginBottom=0;" vertex="1" collapsed="1" parent="1">
          <mxGeometry x="-150" y="1460" width="320" height="26" as="geometry">
            <mxRectangle x="270" y="200" width="210" height="86" as="alternateBounds" />
          </mxGeometry>
        </mxCell>
        <mxCell id="WDAkb9en_wS_irwKjnbd-230" value="+ field: type" style="text;strokeColor=none;fillColor=none;align=left;verticalAlign=top;spacingLeft=4;spacingRight=4;overflow=hidden;rotatable=0;points=[[0,0.5],[1,0.5]];portConstraint=eastwest;" vertex="1" parent="WDAkb9en_wS_irwKjnbd-229">
          <mxGeometry y="26" width="320" height="26" as="geometry" />
        </mxCell>
        <mxCell id="WDAkb9en_wS_irwKjnbd-231" value="" style="line;strokeWidth=1;fillColor=none;align=left;verticalAlign=middle;spacingTop=-1;spacingLeft=3;spacingRight=3;rotatable=0;labelPosition=right;points=[];portConstraint=eastwest;" vertex="1" parent="WDAkb9en_wS_irwKjnbd-229">
          <mxGeometry y="52" width="320" height="8" as="geometry" />
        </mxCell>
        <mxCell id="WDAkb9en_wS_irwKjnbd-232" value="+ method(type): type" style="text;strokeColor=none;fillColor=none;align=left;verticalAlign=top;spacingLeft=4;spacingRight=4;overflow=hidden;rotatable=0;points=[[0,0.5],[1,0.5]];portConstraint=eastwest;" vertex="1" parent="WDAkb9en_wS_irwKjnbd-229">
          <mxGeometry y="60" width="320" height="26" as="geometry" />
        </mxCell>
        <mxCell id="WDAkb9en_wS_irwKjnbd-233" value="BmFinishSimulatedBuildingCellCmd" style="swimlane;fontStyle=1;align=center;verticalAlign=top;childLayout=stackLayout;horizontal=1;startSize=26;horizontalStack=0;resizeParent=1;resizeParentMax=0;resizeLast=0;collapsible=1;marginBottom=0;" vertex="1" collapsed="1" parent="1">
          <mxGeometry x="-150" y="1510" width="320" height="26" as="geometry">
            <mxRectangle x="270" y="200" width="210" height="86" as="alternateBounds" />
          </mxGeometry>
        </mxCell>
        <mxCell id="WDAkb9en_wS_irwKjnbd-234" value="+ field: type" style="text;strokeColor=none;fillColor=none;align=left;verticalAlign=top;spacingLeft=4;spacingRight=4;overflow=hidden;rotatable=0;points=[[0,0.5],[1,0.5]];portConstraint=eastwest;" vertex="1" parent="WDAkb9en_wS_irwKjnbd-233">
          <mxGeometry y="26" width="320" height="26" as="geometry" />
        </mxCell>
        <mxCell id="WDAkb9en_wS_irwKjnbd-235" value="" style="line;strokeWidth=1;fillColor=none;align=left;verticalAlign=middle;spacingTop=-1;spacingLeft=3;spacingRight=3;rotatable=0;labelPosition=right;points=[];portConstraint=eastwest;" vertex="1" parent="WDAkb9en_wS_irwKjnbd-233">
          <mxGeometry y="52" width="320" height="8" as="geometry" />
        </mxCell>
        <mxCell id="WDAkb9en_wS_irwKjnbd-236" value="+ method(type): type" style="text;strokeColor=none;fillColor=none;align=left;verticalAlign=top;spacingLeft=4;spacingRight=4;overflow=hidden;rotatable=0;points=[[0,0.5],[1,0.5]];portConstraint=eastwest;" vertex="1" parent="WDAkb9en_wS_irwKjnbd-233">
          <mxGeometry y="60" width="320" height="26" as="geometry" />
        </mxCell>
        <mxCell id="WDAkb9en_wS_irwKjnbd-237" value="BmEditSimulatedBuildingCellCmd" style="swimlane;fontStyle=1;align=center;verticalAlign=top;childLayout=stackLayout;horizontal=1;startSize=26;horizontalStack=0;resizeParent=1;resizeParentMax=0;resizeLast=0;collapsible=1;marginBottom=0;" vertex="1" collapsed="1" parent="1">
          <mxGeometry x="-150" y="1560" width="320" height="26" as="geometry">
            <mxRectangle x="270" y="200" width="210" height="86" as="alternateBounds" />
          </mxGeometry>
        </mxCell>
        <mxCell id="WDAkb9en_wS_irwKjnbd-238" value="+ field: type" style="text;strokeColor=none;fillColor=none;align=left;verticalAlign=top;spacingLeft=4;spacingRight=4;overflow=hidden;rotatable=0;points=[[0,0.5],[1,0.5]];portConstraint=eastwest;" vertex="1" parent="WDAkb9en_wS_irwKjnbd-237">
          <mxGeometry y="26" width="320" height="26" as="geometry" />
        </mxCell>
        <mxCell id="WDAkb9en_wS_irwKjnbd-239" value="" style="line;strokeWidth=1;fillColor=none;align=left;verticalAlign=middle;spacingTop=-1;spacingLeft=3;spacingRight=3;rotatable=0;labelPosition=right;points=[];portConstraint=eastwest;" vertex="1" parent="WDAkb9en_wS_irwKjnbd-237">
          <mxGeometry y="52" width="320" height="8" as="geometry" />
        </mxCell>
        <mxCell id="WDAkb9en_wS_irwKjnbd-240" value="+ method(type): type" style="text;strokeColor=none;fillColor=none;align=left;verticalAlign=top;spacingLeft=4;spacingRight=4;overflow=hidden;rotatable=0;points=[[0,0.5],[1,0.5]];portConstraint=eastwest;" vertex="1" parent="WDAkb9en_wS_irwKjnbd-237">
          <mxGeometry y="60" width="320" height="26" as="geometry" />
        </mxCell>
        <mxCell id="WDAkb9en_wS_irwKjnbd-241" value="BmCancelSimulatedBuildingCellCmd" style="swimlane;fontStyle=1;align=center;verticalAlign=top;childLayout=stackLayout;horizontal=1;startSize=26;horizontalStack=0;resizeParent=1;resizeParentMax=0;resizeLast=0;collapsible=1;marginBottom=0;" vertex="1" collapsed="1" parent="1">
          <mxGeometry x="-150" y="1620" width="320" height="26" as="geometry">
            <mxRectangle x="270" y="200" width="210" height="86" as="alternateBounds" />
          </mxGeometry>
        </mxCell>
        <mxCell id="WDAkb9en_wS_irwKjnbd-242" value="+ field: type" style="text;strokeColor=none;fillColor=none;align=left;verticalAlign=top;spacingLeft=4;spacingRight=4;overflow=hidden;rotatable=0;points=[[0,0.5],[1,0.5]];portConstraint=eastwest;" vertex="1" parent="WDAkb9en_wS_irwKjnbd-241">
          <mxGeometry y="26" width="320" height="26" as="geometry" />
        </mxCell>
        <mxCell id="WDAkb9en_wS_irwKjnbd-243" value="" style="line;strokeWidth=1;fillColor=none;align=left;verticalAlign=middle;spacingTop=-1;spacingLeft=3;spacingRight=3;rotatable=0;labelPosition=right;points=[];portConstraint=eastwest;" vertex="1" parent="WDAkb9en_wS_irwKjnbd-241">
          <mxGeometry y="52" width="320" height="8" as="geometry" />
        </mxCell>
        <mxCell id="WDAkb9en_wS_irwKjnbd-244" value="+ method(type): type" style="text;strokeColor=none;fillColor=none;align=left;verticalAlign=top;spacingLeft=4;spacingRight=4;overflow=hidden;rotatable=0;points=[[0,0.5],[1,0.5]];portConstraint=eastwest;" vertex="1" parent="WDAkb9en_wS_irwKjnbd-241">
          <mxGeometry y="60" width="320" height="26" as="geometry" />
        </mxCell>
        <mxCell id="WDAkb9en_wS_irwKjnbd-245" value="BmFinishSimulatedBuildingCmd" style="swimlane;fontStyle=1;align=center;verticalAlign=top;childLayout=stackLayout;horizontal=1;startSize=26;horizontalStack=0;resizeParent=1;resizeParentMax=0;resizeLast=0;collapsible=1;marginBottom=0;" vertex="1" collapsed="1" parent="1">
          <mxGeometry x="-150" y="1670" width="320" height="26" as="geometry">
            <mxRectangle x="270" y="200" width="210" height="86" as="alternateBounds" />
          </mxGeometry>
        </mxCell>
        <mxCell id="WDAkb9en_wS_irwKjnbd-246" value="+ field: type" style="text;strokeColor=none;fillColor=none;align=left;verticalAlign=top;spacingLeft=4;spacingRight=4;overflow=hidden;rotatable=0;points=[[0,0.5],[1,0.5]];portConstraint=eastwest;" vertex="1" parent="WDAkb9en_wS_irwKjnbd-245">
          <mxGeometry y="26" width="320" height="26" as="geometry" />
        </mxCell>
        <mxCell id="WDAkb9en_wS_irwKjnbd-247" value="" style="line;strokeWidth=1;fillColor=none;align=left;verticalAlign=middle;spacingTop=-1;spacingLeft=3;spacingRight=3;rotatable=0;labelPosition=right;points=[];portConstraint=eastwest;" vertex="1" parent="WDAkb9en_wS_irwKjnbd-245">
          <mxGeometry y="52" width="320" height="8" as="geometry" />
        </mxCell>
        <mxCell id="WDAkb9en_wS_irwKjnbd-248" value="+ method(type): type" style="text;strokeColor=none;fillColor=none;align=left;verticalAlign=top;spacingLeft=4;spacingRight=4;overflow=hidden;rotatable=0;points=[[0,0.5],[1,0.5]];portConstraint=eastwest;" vertex="1" parent="WDAkb9en_wS_irwKjnbd-245">
          <mxGeometry y="60" width="320" height="26" as="geometry" />
        </mxCell>
        <mxCell id="WDAkb9en_wS_irwKjnbd-249" value="BmCancelSimulatedBuildingCmd" style="swimlane;fontStyle=1;align=center;verticalAlign=top;childLayout=stackLayout;horizontal=1;startSize=26;horizontalStack=0;resizeParent=1;resizeParentMax=0;resizeLast=0;collapsible=1;marginBottom=0;" vertex="1" collapsed="1" parent="1">
          <mxGeometry x="-150" y="1720" width="320" height="26" as="geometry">
            <mxRectangle x="270" y="200" width="210" height="86" as="alternateBounds" />
          </mxGeometry>
        </mxCell>
        <mxCell id="WDAkb9en_wS_irwKjnbd-250" value="+ field: type" style="text;strokeColor=none;fillColor=none;align=left;verticalAlign=top;spacingLeft=4;spacingRight=4;overflow=hidden;rotatable=0;points=[[0,0.5],[1,0.5]];portConstraint=eastwest;" vertex="1" parent="WDAkb9en_wS_irwKjnbd-249">
          <mxGeometry y="26" width="320" height="26" as="geometry" />
        </mxCell>
        <mxCell id="WDAkb9en_wS_irwKjnbd-251" value="" style="line;strokeWidth=1;fillColor=none;align=left;verticalAlign=middle;spacingTop=-1;spacingLeft=3;spacingRight=3;rotatable=0;labelPosition=right;points=[];portConstraint=eastwest;" vertex="1" parent="WDAkb9en_wS_irwKjnbd-249">
          <mxGeometry y="52" width="320" height="8" as="geometry" />
        </mxCell>
        <mxCell id="WDAkb9en_wS_irwKjnbd-252" value="+ method(type): type" style="text;strokeColor=none;fillColor=none;align=left;verticalAlign=top;spacingLeft=4;spacingRight=4;overflow=hidden;rotatable=0;points=[[0,0.5],[1,0.5]];portConstraint=eastwest;" vertex="1" parent="WDAkb9en_wS_irwKjnbd-249">
          <mxGeometry y="60" width="320" height="26" as="geometry" />
        </mxCell>
        <mxCell id="WDAkb9en_wS_irwKjnbd-253" value="BmSimulatedBuildingMapSettingCmd" style="swimlane;fontStyle=1;align=center;verticalAlign=top;childLayout=stackLayout;horizontal=1;startSize=26;horizontalStack=0;resizeParent=1;resizeParentMax=0;resizeLast=0;collapsible=1;marginBottom=0;" vertex="1" collapsed="1" parent="1">
          <mxGeometry x="-150" y="1770" width="320" height="26" as="geometry">
            <mxRectangle x="270" y="200" width="210" height="86" as="alternateBounds" />
          </mxGeometry>
        </mxCell>
        <mxCell id="WDAkb9en_wS_irwKjnbd-254" value="+ field: type" style="text;strokeColor=none;fillColor=none;align=left;verticalAlign=top;spacingLeft=4;spacingRight=4;overflow=hidden;rotatable=0;points=[[0,0.5],[1,0.5]];portConstraint=eastwest;" vertex="1" parent="WDAkb9en_wS_irwKjnbd-253">
          <mxGeometry y="26" width="320" height="26" as="geometry" />
        </mxCell>
        <mxCell id="WDAkb9en_wS_irwKjnbd-255" value="" style="line;strokeWidth=1;fillColor=none;align=left;verticalAlign=middle;spacingTop=-1;spacingLeft=3;spacingRight=3;rotatable=0;labelPosition=right;points=[];portConstraint=eastwest;" vertex="1" parent="WDAkb9en_wS_irwKjnbd-253">
          <mxGeometry y="52" width="320" height="8" as="geometry" />
        </mxCell>
        <mxCell id="WDAkb9en_wS_irwKjnbd-256" value="+ method(type): type" style="text;strokeColor=none;fillColor=none;align=left;verticalAlign=top;spacingLeft=4;spacingRight=4;overflow=hidden;rotatable=0;points=[[0,0.5],[1,0.5]];portConstraint=eastwest;" vertex="1" parent="WDAkb9en_wS_irwKjnbd-253">
          <mxGeometry y="60" width="320" height="26" as="geometry" />
        </mxCell>
      </root>
    </mxGraphModel>
  </diagram>
</mxfile>
